# MagicaVoxel @ Ephtracy

# group
o 

# material
mtllib player-1.mtl
usemtl palette

# normals
vn -1 0 0
vn 1 0 0
vn 0 0 -1
vn 0 0 1
vn 0 -1 0
vn 0 1 0

# texcoords
vt 0.220703 0.5
vt 0.236328 0.5
vt 0.974609 0.5

# verts
v -0.3 2.7 -1.1
v -0.3 2.7 -0.6
v -0.3 2.8 -1.1
v -0.3 2.8 -0.6
v -0.2 1.8 -1.1
v -0.2 1.8 -0.5
v -0.2 2.2 -0.6
v -0.2 2.2 -0.5
v -0.2 2.7 -1.2
v -0.2 2.7 -1.1
v -0.2 2.7 -0.6
v -0.2 2.8 -1.2
v -0.2 2.8 -1.1
v -0.2 2.8 -0.6
v -0.2 3.1 -1.1
v -0.2 3.1 -1
v -0.2 3.2 -1
v -0.2 3.2 -0.6
v -0.1 1.7 -1
v -0.1 1.7 -0.6
v -0.1 1.8 -1
v -0.1 1.8 -0.6
v 0.2 2.1 -0.7
v 0.2 2.1 -0.6
v 0.2 2.2 -0.7
v 0.2 2.2 -0.6
v 0.1 2.1 -0.7
v 0.1 2.1 -0.6
v 0.1 2.2 -0.7
v 0.1 2.2 -0.6
v 0.2 1.8 -1.1
v 0.2 1.8 -1
v 0.2 2.2 -1
v 0.2 2.2 -0.6
v 0.2 2.7 -1.2
v 0.2 2.7 -1.1
v 0.2 2.7 -0.6
v 0.2 2.8 -1.2
v 0.2 2.8 -1.1
v 0.2 2.8 -0.6
v 0.2 3.1 -1.1
v 0.2 3.1 -1
v 0.2 3.2 -1
v 0.2 3.2 -0.6
v 0.3 1.7 -1
v 0.3 1.7 -0.6
v 0.3 1.8 -0.9
v 0.3 1.8 -0.6
v 0.3 2.1 -0.9
v 0.3 2.1 -0.6
v 0.3 2.2 -1
v 0.3 2.2 -0.6
v 0.3 2.7 -1.1
v 0.3 2.7 -0.6
v 0.3 2.8 -1.1
v 0.3 2.8 -0.6
v 0.4 1.8 -0.9
v 0.4 1.8 -0.5
v 0.4 2.1 -0.9
v 0.4 2.1 -0.6
v 0.4 2.2 -0.6
v 0.4 2.2 -0.5
v -0.2 2.7 -1.2
v -0.2 2.8 -1.2
v 0.2 2.7 -1.2
v 0.2 2.8 -1.2
v -0.3 2.7 -1.1
v -0.3 2.8 -1.1
v -0.2 1.8 -1.1
v -0.2 2.7 -1.1
v -0.2 2.8 -1.1
v -0.2 3.1 -1.1
v 0.2 1.8 -1.1
v 0.2 2.7 -1.1
v 0.2 2.8 -1.1
v 0.2 3.1 -1.1
v 0.3 2.7 -1.1
v 0.3 2.8 -1.1
v -0.2 3.1 -1
v -0.2 3.2 -1
v -0.1 1.7 -1
v -0.1 1.8 -1
v 0.2 1.8 -1
v 0.2 2.2 -1
v 0.2 3.1 -1
v 0.2 3.2 -1
v 0.3 1.7 -1
v 0.3 2.2 -1
v 0.3 1.8 -0.9
v 0.3 2.1 -0.9
v 0.4 1.8 -0.9
v 0.4 2.1 -0.9
v 0.1 2.1 -0.6
v 0.1 2.2 -0.6
v 0.2 2.1 -0.6
v 0.2 2.2 -0.6
v 0.3 2.1 -0.6
v 0.3 2.2 -0.6
v 0.4 2.1 -0.6
v 0.4 2.2 -0.6
v 0.1 2.1 -0.7
v 0.1 2.2 -0.7
v 0.2 2.1 -0.7
v 0.2 2.2 -0.7
v -0.3 2.7 -0.6
v -0.3 2.8 -0.6
v -0.2 2.2 -0.6
v -0.2 2.7 -0.6
v -0.2 2.8 -0.6
v -0.2 3.2 -0.6
v -0.1 1.7 -0.6
v -0.1 1.8 -0.6
v 0.2 2.2 -0.6
v 0.2 2.7 -0.6
v 0.2 2.8 -0.6
v 0.2 3.2 -0.6
v 0.3 1.7 -0.6
v 0.3 1.8 -0.6
v 0.3 2.7 -0.6
v 0.3 2.8 -0.6
v -0.2 1.8 -0.5
v -0.2 2.2 -0.5
v 0.4 1.8 -0.5
v 0.4 2.2 -0.5
v -0.1 1.7 -1
v 0.3 1.7 -1
v -0.1 1.7 -0.6
v 0.3 1.7 -0.6
v -0.2 1.8 -1.1
v 0.2 1.8 -1.1
v -0.1 1.8 -1
v 0.2 1.8 -1
v 0.3 1.8 -0.9
v 0.4 1.8 -0.9
v -0.1 1.8 -0.6
v 0.3 1.8 -0.6
v -0.2 1.8 -0.5
v 0.4 1.8 -0.5
v 0.1 2.2 -0.7
v 0.2 2.2 -0.7
v 0.1 2.2 -0.6
v 0.2 2.2 -0.6
v -0.2 2.7 -1.2
v 0.2 2.7 -1.2
v -0.3 2.7 -1.1
v -0.2 2.7 -1.1
v 0.2 2.7 -1.1
v 0.3 2.7 -1.1
v -0.3 2.7 -0.6
v -0.2 2.7 -0.6
v 0.2 2.7 -0.6
v 0.3 2.7 -0.6
v 0.3 2.1 -0.9
v 0.4 2.1 -0.9
v 0.1 2.1 -0.7
v 0.2 2.1 -0.7
v 0.1 2.1 -0.6
v 0.2 2.1 -0.6
v 0.3 2.1 -0.6
v 0.4 2.1 -0.6
v 0.2 2.2 -1
v 0.3 2.2 -1
v -0.2 2.2 -0.6
v 0.2 2.2 -0.6
v 0.3 2.2 -0.6
v 0.4 2.2 -0.6
v -0.2 2.2 -0.5
v 0.4 2.2 -0.5
v -0.2 2.8 -1.2
v 0.2 2.8 -1.2
v -0.3 2.8 -1.1
v -0.2 2.8 -1.1
v 0.2 2.8 -1.1
v 0.3 2.8 -1.1
v -0.3 2.8 -0.6
v -0.2 2.8 -0.6
v 0.2 2.8 -0.6
v 0.3 2.8 -0.6
v -0.2 3.1 -1.1
v 0.2 3.1 -1.1
v -0.2 3.1 -1
v 0.2 3.1 -1
v -0.2 3.2 -1
v 0.2 3.2 -1
v -0.2 3.2 -0.6
v 0.2 3.2 -0.6

# faces
f 1/3/1 2/3/1 3/3/1
f 3/3/1 2/3/1 4/3/1
f 5/2/1 6/2/1 7/2/1
f 7/2/1 6/2/1 8/2/1
f 5/2/1 7/2/1 10/2/1
f 10/2/1 7/2/1 11/2/1
f 9/3/1 10/3/1 12/3/1
f 12/3/1 10/3/1 13/3/1
f 13/1/1 14/1/1 15/1/1
f 15/1/1 14/1/1 16/1/1
f 16/1/1 14/1/1 17/1/1
f 17/1/1 14/1/1 18/1/1
f 19/2/1 20/2/1 21/2/1
f 21/2/1 20/2/1 22/2/1
f 23/2/1 24/2/1 25/2/1
f 25/2/1 24/2/1 26/2/1
f 29/2/2 28/2/2 27/2/2
f 30/2/2 28/2/2 29/2/2
f 33/2/2 32/2/2 31/2/2
f 36/2/2 33/2/2 31/2/2
f 36/2/2 34/2/2 33/2/2
f 37/2/2 34/2/2 36/2/2
f 38/3/2 36/3/2 35/3/2
f 39/3/2 36/3/2 38/3/2
f 41/1/2 40/1/2 39/1/2
f 42/1/2 40/1/2 41/1/2
f 43/1/2 40/1/2 42/1/2
f 44/1/2 40/1/2 43/1/2
f 47/2/2 46/2/2 45/2/2
f 48/2/2 46/2/2 47/2/2
f 49/2/2 47/2/2 45/2/2
f 51/2/2 49/2/2 45/2/2
f 51/2/2 50/2/2 49/2/2
f 52/2/2 50/2/2 51/2/2
f 55/3/2 54/3/2 53/3/2
f 56/3/2 54/3/2 55/3/2
f 59/2/2 58/2/2 57/2/2
f 60/2/2 58/2/2 59/2/2
f 61/2/2 58/2/2 60/2/2
f 62/2/2 58/2/2 61/2/2
f 63/3/3 64/3/3 65/3/3
f 65/3/3 64/3/3 66/3/3
f 67/3/3 68/3/3 70/3/3
f 70/3/3 68/3/3 71/3/3
f 69/2/3 70/2/3 73/2/3
f 73/2/3 70/2/3 74/2/3
f 71/1/3 72/1/3 75/1/3
f 75/1/3 72/1/3 76/1/3
f 74/3/3 75/3/3 77/3/3
f 77/3/3 75/3/3 78/3/3
f 81/2/3 82/2/3 83/2/3
f 79/1/3 80/1/3 85/1/3
f 85/1/3 80/1/3 86/1/3
f 83/2/3 84/2/3 87/2/3
f 81/2/3 83/2/3 87/2/3
f 87/2/3 84/2/3 88/2/3
f 89/2/3 90/2/3 91/2/3
f 91/2/3 90/2/3 92/2/3
f 93/2/3 94/2/3 95/2/3
f 95/2/3 94/2/3 96/2/3
f 97/2/3 98/2/3 99/2/3
f 99/2/3 98/2/3 100/2/3
f 103/2/4 102/2/4 101/2/4
f 104/2/4 102/2/4 103/2/4
f 108/3/4 106/3/4 105/3/4
f 109/3/4 106/3/4 108/3/4
f 113/2/4 108/2/4 107/2/4
f 114/3/4 109/3/4 108/3/4
f 114/2/4 108/2/4 113/2/4
f 115/1/4 110/1/4 109/1/4
f 115/3/4 109/3/4 114/3/4
f 116/1/4 110/1/4 115/1/4
f 117/2/4 112/2/4 111/2/4
f 118/2/4 112/2/4 117/2/4
f 119/3/4 115/3/4 114/3/4
f 120/3/4 115/3/4 119/3/4
f 123/2/4 122/2/4 121/2/4
f 124/2/4 122/2/4 123/2/4
f 125/2/5 126/2/5 127/2/5
f 127/2/5 126/2/5 128/2/5
f 129/2/5 130/2/5 131/2/5
f 131/2/5 130/2/5 132/2/5
f 129/2/5 131/2/5 135/2/5
f 133/2/5 134/2/5 136/2/5
f 129/2/5 135/2/5 137/2/5
f 135/2/5 136/2/5 137/2/5
f 136/2/5 134/2/5 138/2/5
f 137/2/5 136/2/5 138/2/5
f 139/2/5 140/2/5 141/2/5
f 141/2/5 140/2/5 142/2/5
f 143/3/5 144/3/5 146/3/5
f 146/3/5 144/3/5 147/3/5
f 145/3/5 146/3/5 149/3/5
f 149/3/5 146/3/5 150/3/5
f 147/3/5 148/3/5 151/3/5
f 151/3/5 148/3/5 152/3/5
f 157/2/6 156/2/6 155/2/6
f 158/2/6 156/2/6 157/2/6
f 159/2/6 154/2/6 153/2/6
f 160/2/6 154/2/6 159/2/6
f 164/2/6 162/2/6 161/2/6
f 165/2/6 162/2/6 164/2/6
f 167/2/6 164/2/6 163/2/6
f 167/2/6 166/2/6 165/2/6
f 167/2/6 165/2/6 164/2/6
f 168/2/6 166/2/6 167/2/6
f 172/3/6 170/3/6 169/3/6
f 173/3/6 170/3/6 172/3/6
f 175/3/6 172/3/6 171/3/6
f 176/3/6 172/3/6 175/3/6
f 177/3/6 174/3/6 173/3/6
f 178/3/6 174/3/6 177/3/6
f 181/1/6 180/1/6 179/1/6
f 182/1/6 180/1/6 181/1/6
f 185/1/6 184/1/6 183/1/6
f 186/1/6 184/1/6 185/1/6
