# MagicaVoxel @ Ephtracy

# group
o 

# material
mtllib player-0.mtl
usemtl palette

# normals
vn -1 0 0
vn 1 0 0
vn 0 0 1
vn 0 0 -1
vn 0 -1 0
vn 0 1 0

# texcoords
vt 0.177734 0.5
vt 0.220703 0.5
vt 0.236328 0.5
vt 0.310547 0.5
vt 0.919922 0.5
vt 0.994141 0.5

# verts
v -0.5 3.1 0.6
v -0.5 3.1 -0.4
v -0.5 3.4 -0.3
v -0.5 3.4 -0.4
v -0.5 3.5 0.6
v -0.5 3.5 0.4
v -0.5 3.6 0.4
v -0.5 3.6 -0.3
v -0.5 4.1 0.6
v -0.5 4.1 -0.4
v 0.4 2.8 0.3
v 0.4 2.8 -0.0999998
v 0.4 2.9 0.4
v 0.4 2.9 0.3
v 0.4 2.9 -0.0999998
v 0.4 2.9 -0.2
v 0.4 3 0.5
v 0.4 3 0.4
v 0.4 3 -0.2
v 0.4 3 -0.3
v 0.4 3.1 0.5
v 0.4 3.1 -0.3
v 0.5 2.8 0.3
v 0.5 2.8 -0.0999998
v 0.5 2.9 0.4
v 0.5 2.9 0.3
v 0.5 2.9 -0.0999998
v 0.5 2.9 -0.2
v 0.5 3 0.5
v 0.5 3 0.4
v 0.5 3 -0.2
v 0.5 3 -0.3
v 0.5 3.1 0.6
v 0.5 3.1 0.5
v 0.5 3.1 -0.3
v 0.5 3.1 -0.4
v 0.5 3.2 0.5
v 0.5 3.2 0.4
v 0.5 3.2 -0.2
v 0.5 3.2 -0.3
v 0.5 3.3 0.6
v 0.5 3.3 0.5
v 0.5 3.3 0.4
v 0.5 3.3 0.3
v 0.5 3.3 -0.0999998
v 0.5 3.3 -0.2
v 0.5 3.3 -0.3
v 0.5 3.3 -0.4
v 0.5 3.4 0.5
v 0.5 3.4 0.4
v 0.5 3.4 0.3
v 0.5 3.4 -0.0999998
v 0.5 3.4 -0.2
v 0.5 3.4 -0.3
v 0.5 3.5 0.4
v 0.5 3.5 -0.2
v 0.5 3.6 0.5
v 0.5 3.6 0.4
v 0.5 3.6 0.3
v 0.5 3.6 0.2
v 0.5 3.6 1.78814e-007
v 0.5 3.6 -0.0999998
v 0.5 3.6 -0.2
v 0.5 3.6 -0.3
v 0.5 3.7 0.5
v 0.5 3.7 0.4
v 0.5 3.7 0.3
v 0.5 3.7 0.2
v 0.5 3.7 1.78814e-007
v 0.5 3.7 -0.0999998
v 0.5 3.7 -0.2
v 0.5 3.7 -0.3
v 0.5 3.8 0.6
v 0.5 3.8 0.5
v 0.5 3.8 0.4
v 0.5 3.8 0.2
v 0.5 3.8 1.78814e-007
v 0.5 3.8 -0.2
v 0.5 3.8 -0.3
v 0.5 3.8 -0.4
v 0.5 3.9 0.5
v 0.5 3.9 -0.3
v 0.5 4.1 0.6
v 0.5 4.1 -0.4
v -0.5 3.1 0.6
v -0.5 3.5 0.6
v -0.5 4.1 0.6
v -0.3 3.5 0.6
v -0.3 3.6 0.6
v -0.1 3.6 0.6
v -0.1 3.7 0.6
v 0.2 3.7 0.6
v 0.2 3.8 0.6
v 0.4 3.1 0.6
v 0.4 3.3 0.6
v 0.5 3.1 0.6
v 0.5 3.3 0.6
v 0.5 3.8 0.6
v 0.5 4.1 0.6
v 0.4 3 0.5
v 0.4 3.1 0.5
v 0.5 3 0.5
v 0.5 3.1 0.5
v 0.4 2.9 0.4
v 0.4 3 0.4
v 0.5 2.9 0.4
v 0.5 3 0.4
v 0.4 2.8 0.3
v 0.4 2.9 0.3
v 0.5 2.8 0.3
v 0.5 2.9 0.3
v 0.4 2.8 -0.0999998
v 0.4 2.9 -0.0999998
v 0.5 2.8 -0.0999998
v 0.5 2.9 -0.0999998
v 0.4 2.9 -0.2
v 0.4 3 -0.2
v 0.5 2.9 -0.2
v 0.5 3 -0.2
v 0.4 3 -0.3
v 0.4 3.1 -0.3
v 0.5 3 -0.3
v 0.5 3.1 -0.3
v -0.5 3.1 -0.4
v -0.5 3.4 -0.4
v -0.5 4.1 -0.4
v -0.1 3.4 -0.4
v -0.1 3.5 -0.4
v 0 3.5 -0.4
v 0 3.7 -0.4
v 0.2 3.7 -0.4
v 0.2 3.8 -0.4
v 0.4 3.1 -0.4
v 0.4 3.3 -0.4
v 0.5 3.1 -0.4
v 0.5 3.3 -0.4
v 0.5 3.8 -0.4
v 0.5 4.1 -0.4
v 0.4 2.8 0.3
v 0.5 2.8 0.3
v 0.4 2.8 -0.0999998
v 0.5 2.8 -0.0999998
v 0.4 2.9 0.4
v 0.5 2.9 0.4
v 0.4 2.9 0.3
v 0.5 2.9 0.3
v 0.4 2.9 -0.0999998
v 0.5 2.9 -0.0999998
v 0.4 2.9 -0.2
v 0.5 2.9 -0.2
v 0.4 3 0.5
v 0.5 3 0.5
v 0.4 3 0.4
v 0.5 3 0.4
v 0.4 3 -0.2
v 0.5 3 -0.2
v 0.4 3 -0.3
v 0.5 3 -0.3
v -0.5 3.1 0.6
v 0.4 3.1 0.6
v 0.5 3.1 0.6
v -0.4 3.1 0.5
v 0.4 3.1 0.5
v 0.5 3.1 0.5
v -0.4 3.1 -0.3
v 0.4 3.1 -0.3
v 0.5 3.1 -0.3
v -0.5 3.1 -0.4
v 0.4 3.1 -0.4
v 0.5 3.1 -0.4
v -0.5 4.1 0.6
v 0.5 4.1 0.6
v -0.5 4.1 -0.4
v 0.5 4.1 -0.4

# faces
f 3/3/1 2/3/1 1/3/1
f 4/3/1 2/3/1 3/3/1
f 5/3/1 3/3/1 1/3/1
f 6/3/1 3/3/1 5/3/1
f 7/1/1 6/1/1 5/1/1
f 7/3/1 3/3/1 6/3/1
f 8/1/1 4/1/1 3/1/1
f 8/3/1 3/3/1 7/3/1
f 9/1/1 7/1/1 5/1/1
f 9/1/1 8/1/1 7/1/1
f 10/1/1 4/1/1 8/1/1
f 10/1/1 8/1/1 9/1/1
f 14/1/1 12/1/1 11/1/1
f 15/1/1 12/1/1 14/1/1
f 18/1/1 14/1/1 13/1/1
f 18/1/1 16/1/1 15/1/1
f 18/1/1 15/1/1 14/1/1
f 19/1/1 16/1/1 18/1/1
f 21/1/1 18/1/1 17/1/1
f 21/1/1 20/1/1 19/1/1
f 21/1/1 19/1/1 18/1/1
f 22/1/1 20/1/1 21/1/1
f 23/1/2 24/1/2 26/1/2
f 26/1/2 24/1/2 27/1/2
f 25/1/2 26/1/2 30/1/2
f 27/1/2 28/1/2 30/1/2
f 26/1/2 27/1/2 30/1/2
f 30/1/2 28/1/2 31/1/2
f 29/1/2 30/1/2 34/1/2
f 31/1/2 32/1/2 34/1/2
f 30/1/2 31/1/2 34/1/2
f 34/1/2 32/1/2 35/1/2
f 33/1/2 34/1/2 37/1/2
f 35/1/2 36/1/2 37/1/2
f 34/1/2 35/1/2 37/1/2
f 37/1/2 36/1/2 38/1/2
f 38/1/2 36/1/2 39/1/2
f 39/1/2 36/1/2 40/1/2
f 33/1/2 37/1/2 41/1/2
f 37/4/2 38/4/2 42/4/2
f 41/1/2 37/1/2 42/1/2
f 38/3/2 39/3/2 43/3/2
f 42/4/2 38/4/2 43/4/2
f 43/3/2 39/3/2 44/3/2
f 44/3/2 39/3/2 45/3/2
f 39/4/2 40/4/2 46/4/2
f 45/3/2 39/3/2 46/3/2
f 40/1/2 36/1/2 47/1/2
f 46/4/2 40/4/2 47/4/2
f 47/1/2 36/1/2 48/1/2
f 41/3/2 42/3/2 49/3/2
f 42/1/2 43/1/2 49/1/2
f 43/4/2 44/4/2 50/4/2
f 49/1/2 43/1/2 50/1/2
f 44/3/2 45/3/2 51/3/2
f 50/4/2 44/4/2 51/4/2
f 45/4/2 46/4/2 52/4/2
f 51/3/2 45/3/2 52/3/2
f 46/1/2 47/1/2 53/1/2
f 52/4/2 46/4/2 53/4/2
f 47/3/2 48/3/2 54/3/2
f 53/1/2 47/1/2 54/1/2
f 50/1/2 51/1/2 55/1/2
f 49/3/2 50/3/2 55/3/2
f 52/1/2 53/1/2 55/1/2
f 51/1/2 52/1/2 55/1/2
f 53/3/2 54/3/2 56/3/2
f 55/1/2 53/1/2 56/1/2
f 49/3/2 55/3/2 57/3/2
f 41/3/2 49/3/2 57/3/2
f 55/3/2 56/3/2 57/3/2
f 57/3/2 56/3/2 58/3/2
f 58/3/2 56/3/2 59/3/2
f 59/3/2 56/3/2 60/3/2
f 60/3/2 56/3/2 61/3/2
f 61/3/2 56/3/2 62/3/2
f 56/3/2 54/3/2 63/3/2
f 62/3/2 56/3/2 63/3/2
f 54/3/2 48/3/2 64/3/2
f 63/3/2 54/3/2 64/3/2
f 41/3/2 57/3/2 65/3/2
f 57/1/2 58/1/2 65/1/2
f 58/5/2 59/5/2 66/5/2
f 65/1/2 58/1/2 66/1/2
f 59/6/2 60/6/2 67/6/2
f 66/5/2 59/5/2 67/5/2
f 60/3/2 61/3/2 68/3/2
f 67/6/2 60/6/2 68/6/2
f 61/6/2 62/6/2 69/6/2
f 68/3/2 61/3/2 69/3/2
f 62/5/2 63/5/2 70/5/2
f 69/6/2 62/6/2 70/6/2
f 63/1/2 64/1/2 71/1/2
f 70/5/2 63/5/2 71/5/2
f 64/3/2 48/3/2 72/3/2
f 71/1/2 64/1/2 72/1/2
f 41/3/2 65/3/2 73/3/2
f 65/3/2 66/3/2 73/3/2
f 73/3/2 66/3/2 74/3/2
f 67/1/2 68/1/2 75/1/2
f 74/3/2 66/3/2 75/3/2
f 66/1/2 67/1/2 75/1/2
f 68/3/2 69/3/2 76/3/2
f 75/1/2 68/1/2 76/1/2
f 70/1/2 71/1/2 77/1/2
f 76/3/2 69/3/2 77/3/2
f 69/1/2 70/1/2 77/1/2
f 71/3/2 72/3/2 78/3/2
f 77/1/2 71/1/2 78/1/2
f 72/3/2 48/3/2 79/3/2
f 78/3/2 72/3/2 79/3/2
f 79/3/2 48/3/2 80/3/2
f 74/3/2 75/3/2 81/3/2
f 73/1/2 74/1/2 81/1/2
f 75/3/2 76/3/2 81/3/2
f 78/3/2 79/3/2 81/3/2
f 76/3/2 77/3/2 81/3/2
f 77/3/2 78/3/2 81/3/2
f 79/1/2 80/1/2 82/1/2
f 81/3/2 79/3/2 82/3/2
f 73/1/2 81/1/2 83/1/2
f 81/1/2 82/1/2 83/1/2
f 82/1/2 80/1/2 84/1/2
f 83/1/2 82/1/2 84/1/2
f 88/3/3 86/3/3 85/3/3
f 88/1/3 87/1/3 86/1/3
f 89/1/3 87/1/3 88/1/3
f 90/3/3 89/3/3 88/3/3
f 90/1/3 87/1/3 89/1/3
f 91/1/3 87/1/3 90/1/3
f 92/3/3 91/3/3 90/3/3
f 92/1/3 87/1/3 91/1/3
f 93/1/3 87/1/3 92/1/3
f 94/3/3 88/3/3 85/3/3
f 94/3/3 90/3/3 88/3/3
f 94/3/3 93/3/3 92/3/3
f 94/3/3 92/3/3 90/3/3
f 95/3/3 93/3/3 94/3/3
f 96/1/3 95/1/3 94/1/3
f 97/3/3 93/3/3 95/3/3
f 97/1/3 95/1/3 96/1/3
f 98/1/3 87/1/3 93/1/3
f 98/3/3 93/3/3 97/3/3
f 99/1/3 87/1/3 98/1/3
f 102/1/3 101/1/3 100/1/3
f 103/1/3 101/1/3 102/1/3
f 106/1/3 105/1/3 104/1/3
f 107/1/3 105/1/3 106/1/3
f 110/1/3 109/1/3 108/1/3
f 111/1/3 109/1/3 110/1/3
f 112/1/4 113/1/4 114/1/4
f 114/1/4 113/1/4 115/1/4
f 116/1/4 117/1/4 118/1/4
f 118/1/4 117/1/4 119/1/4
f 120/1/4 121/1/4 122/1/4
f 122/1/4 121/1/4 123/1/4
f 124/3/4 125/3/4 127/3/4
f 125/1/4 126/1/4 127/1/4
f 127/1/4 126/1/4 128/1/4
f 127/3/4 128/3/4 129/3/4
f 128/1/4 126/1/4 129/1/4
f 129/1/4 126/1/4 130/1/4
f 129/3/4 130/3/4 131/3/4
f 130/1/4 126/1/4 131/1/4
f 131/1/4 126/1/4 132/1/4
f 124/3/4 127/3/4 133/3/4
f 127/3/4 129/3/4 133/3/4
f 131/3/4 132/3/4 133/3/4
f 129/3/4 131/3/4 133/3/4
f 133/3/4 132/3/4 134/3/4
f 133/1/4 134/1/4 135/1/4
f 134/3/4 132/3/4 136/3/4
f 135/1/4 134/1/4 136/1/4
f 132/1/4 126/1/4 137/1/4
f 136/3/4 132/3/4 137/3/4
f 137/1/4 126/1/4 138/1/4
f 141/1/5 140/1/5 139/1/5
f 142/1/5 140/1/5 141/1/5
f 145/1/5 144/1/5 143/1/5
f 146/1/5 144/1/5 145/1/5
f 149/1/5 148/1/5 147/1/5
f 150/1/5 148/1/5 149/1/5
f 153/1/5 152/1/5 151/1/5
f 154/1/5 152/1/5 153/1/5
f 157/1/5 156/1/5 155/1/5
f 158/1/5 156/1/5 157/1/5
f 162/3/5 160/3/5 159/3/5
f 163/1/5 161/1/5 160/1/5
f 163/3/5 160/3/5 162/3/5
f 164/1/5 161/1/5 163/1/5
f 165/3/5 162/3/5 159/3/5
f 165/2/5 163/2/5 162/2/5
f 166/2/5 163/2/5 165/2/5
f 168/3/5 165/3/5 159/3/5
f 168/3/5 166/3/5 165/3/5
f 169/1/5 167/1/5 166/1/5
f 169/3/5 166/3/5 168/3/5
f 170/1/5 167/1/5 169/1/5
f 171/1/6 172/1/6 173/1/6
f 173/1/6 172/1/6 174/1/6
