# MagicaVoxel @ Ephtracy

# group
o 

# material
mtllib game-8.mtl
usemtl palette

# normals
vn 0 1 0
vn 0 -1 0
vn 0 0 1
vn 0 0 -1
vn -1 0 0
vn 1 0 0

# texcoords
vt 0.271484 0.5
vt 0.958984 0.5
vt 0.974609 0.5

# verts
v -0.1 4 0
v -0.1 4 -0.1
v 0 4 0.1
v 0 4 0
v 0 4 -0.1
v 0 4 -0.2
v 0.1 4 0.1
v 0.1 4 0
v 0.1 4 -0.1
v 0.1 4 -0.2
v 0.2 4 0
v 0.2 4 -0.1
v 0 3.9 0
v 0 3.9 -0.1
v 0.1 3.9 0
v 0.1 3.9 -0.1
v -0.1 2.4 0
v -0.1 2.4 -0.1
v 0 2.4 0.1
v 0 2.4 0
v 0 2.4 -0.1
v 0 2.4 -0.2
v 0.1 2.4 0.1
v 0.1 2.4 0
v 0.1 2.4 -0.1
v 0.1 2.4 -0.2
v 0.2 2.4 0
v 0.2 2.4 -0.1
v -0.1 3.8 0
v -0.1 3.8 -0.1
v 0 3.8 0.1
v 0 3.8 0
v 0 3.8 -0.1
v 0 3.8 -0.2
v 0.1 3.8 0.1
v 0.1 3.8 0
v 0.1 3.8 -0.1
v 0.1 3.8 -0.2
v 0.2 3.8 0
v 0.2 3.8 -0.1
v -0.1 2.2 0
v -0.1 2.2 -0.1
v 0 2.2 0.1
v 0 2.2 0
v 0 2.2 -0.1
v 0 2.2 -0.2
v 0.1 2.2 0.1
v 0.1 2.2 0
v 0.1 2.2 -0.1
v 0.1 2.2 -0.2
v 0.2 2.2 0
v 0.2 2.2 -0.1
v 0 2.1 0
v 0 2.1 -0.1
v 0.1 2.1 0
v 0.1 2.1 -0.1
v 0 4 0.1
v 0.1 4 0.1
v 0 3.8 0.1
v 0.1 3.8 0.1
v 0 2.4 0.1
v 0.1 2.4 0.1
v 0 2.2 0.1
v 0.1 2.2 0.1
v -0.1 4 0
v 0 4 0
v 0.1 4 0
v 0.2 4 0
v -0.1 3.8 0
v 0 3.8 0
v 0.1 3.8 0
v 0.2 3.8 0
v -0.1 2.4 0
v 0 2.4 0
v 0.1 2.4 0
v 0.2 2.4 0
v -0.1 2.2 0
v 0 2.2 0
v 0.1 2.2 0
v 0.2 2.2 0
v 0 2.1 0
v 0.1 2.1 0
v 0 4 -0.1
v 0.1 4 -0.1
v 0 3.9 -0.1
v 0.1 3.9 -0.1
v 0 4 0
v 0.1 4 0
v 0 3.9 0
v 0.1 3.9 0
v -0.1 4 -0.1
v 0 4 -0.1
v 0.1 4 -0.1
v 0.2 4 -0.1
v -0.1 3.8 -0.1
v 0 3.8 -0.1
v 0.1 3.8 -0.1
v 0.2 3.8 -0.1
v -0.1 2.4 -0.1
v 0 2.4 -0.1
v 0.1 2.4 -0.1
v 0.2 2.4 -0.1
v -0.1 2.2 -0.1
v 0 2.2 -0.1
v 0.1 2.2 -0.1
v 0.2 2.2 -0.1
v 0 2.1 -0.1
v 0.1 2.1 -0.1
v 0 4 -0.2
v 0.1 4 -0.2
v 0 3.8 -0.2
v 0.1 3.8 -0.2
v 0 2.4 -0.2
v 0.1 2.4 -0.2
v 0 2.2 -0.2
v 0.1 2.2 -0.2
v -0.1 4 0
v -0.1 3.8 0
v -0.1 2.4 0
v -0.1 2.2 0
v -0.1 4 -0.1
v -0.1 3.8 -0.1
v -0.1 2.4 -0.1
v -0.1 2.2 -0.1
v 0 4 0.1
v 0 3.8 0.1
v 0 2.4 0.1
v 0 2.2 0.1
v 0 4 0
v 0 3.8 0
v 0 2.4 0
v 0 2.2 0
v 0 2.1 0
v 0 4 -0.1
v 0 3.8 -0.1
v 0 2.4 -0.1
v 0 2.2 -0.1
v 0 2.1 -0.1
v 0 4 -0.2
v 0 3.8 -0.2
v 0 2.4 -0.2
v 0 2.2 -0.2
v 0.1 4 0
v 0.1 3.9 0
v 0.1 4 -0.1
v 0.1 3.9 -0.1
v 0 4 0
v 0 3.9 0
v 0 4 -0.1
v 0 3.9 -0.1
v 0.1 4 0.1
v 0.1 3.8 0.1
v 0.1 2.4 0.1
v 0.1 2.2 0.1
v 0.1 4 0
v 0.1 3.8 0
v 0.1 2.4 0
v 0.1 2.2 0
v 0.1 2.1 0
v 0.1 4 -0.1
v 0.1 3.8 -0.1
v 0.1 2.4 -0.1
v 0.1 2.2 -0.1
v 0.1 2.1 -0.1
v 0.1 4 -0.2
v 0.1 3.8 -0.2
v 0.1 2.4 -0.2
v 0.1 2.2 -0.2
v 0.2 4 0
v 0.2 3.8 0
v 0.2 2.4 0
v 0.2 2.2 0
v 0.2 4 -0.1
v 0.2 3.8 -0.1
v 0.2 2.4 -0.1
v 0.2 2.2 -0.1

# faces
f 4/2/1 2/2/1 1/2/1
f 5/2/1 2/2/1 4/2/1
f 7/2/1 4/2/1 3/2/1
f 8/2/1 4/2/1 7/2/1
f 9/2/1 6/2/1 5/2/1
f 10/2/1 6/2/1 9/2/1
f 11/2/1 9/2/1 8/2/1
f 12/2/1 9/2/1 11/2/1
f 15/2/1 14/2/1 13/2/1
f 16/2/1 14/2/1 15/2/1
f 20/3/1 18/3/1 17/3/1
f 21/3/1 18/3/1 20/3/1
f 23/3/1 20/3/1 19/3/1
f 24/3/1 20/3/1 23/3/1
f 25/3/1 22/3/1 21/3/1
f 26/3/1 22/3/1 25/3/1
f 27/3/1 25/3/1 24/3/1
f 28/3/1 25/3/1 27/3/1
f 29/2/2 30/2/2 32/2/2
f 32/2/2 30/2/2 33/2/2
f 31/2/2 32/2/2 35/2/2
f 35/2/2 32/2/2 36/2/2
f 33/2/2 34/2/2 37/2/2
f 37/2/2 34/2/2 38/2/2
f 36/2/2 37/2/2 39/2/2
f 39/2/2 37/2/2 40/2/2
f 41/3/2 42/3/2 44/3/2
f 44/3/2 42/3/2 45/3/2
f 43/3/2 44/3/2 47/3/2
f 47/3/2 44/3/2 48/3/2
f 45/3/2 46/3/2 49/3/2
f 49/3/2 46/3/2 50/3/2
f 48/3/2 49/3/2 51/3/2
f 51/3/2 49/3/2 52/3/2
f 53/3/2 54/3/2 55/3/2
f 55/3/2 54/3/2 56/3/2
f 59/2/3 58/2/3 57/2/3
f 60/2/3 58/2/3 59/2/3
f 63/3/3 62/3/3 61/3/3
f 64/3/3 62/3/3 63/3/3
f 69/2/3 66/2/3 65/2/3
f 70/2/3 66/2/3 69/2/3
f 71/2/3 68/2/3 67/2/3
f 72/2/3 68/2/3 71/2/3
f 74/1/3 71/1/3 70/1/3
f 75/1/3 71/1/3 74/1/3
f 77/3/3 74/3/3 73/3/3
f 78/3/3 74/3/3 77/3/3
f 79/3/3 76/3/3 75/3/3
f 80/3/3 76/3/3 79/3/3
f 81/3/3 79/3/3 78/3/3
f 82/3/3 79/3/3 81/3/3
f 85/2/3 84/2/3 83/2/3
f 86/2/3 84/2/3 85/2/3
f 87/2/4 88/2/4 89/2/4
f 89/2/4 88/2/4 90/2/4
f 91/2/4 92/2/4 95/2/4
f 95/2/4 92/2/4 96/2/4
f 93/2/4 94/2/4 97/2/4
f 97/2/4 94/2/4 98/2/4
f 96/1/4 97/1/4 100/1/4
f 100/1/4 97/1/4 101/1/4
f 99/3/4 100/3/4 103/3/4
f 103/3/4 100/3/4 104/3/4
f 101/3/4 102/3/4 105/3/4
f 105/3/4 102/3/4 106/3/4
f 104/3/4 105/3/4 107/3/4
f 107/3/4 105/3/4 108/3/4
f 109/2/4 110/2/4 111/2/4
f 111/2/4 110/2/4 112/2/4
f 113/3/4 114/3/4 115/3/4
f 115/3/4 114/3/4 116/3/4
f 121/2/5 118/2/5 117/2/5
f 122/2/5 118/2/5 121/2/5
f 123/3/5 120/3/5 119/3/5
f 124/3/5 120/3/5 123/3/5
f 129/2/5 126/2/5 125/2/5
f 130/2/5 126/2/5 129/2/5
f 131/3/5 128/3/5 127/3/5
f 132/3/5 128/3/5 131/3/5
f 135/1/5 131/1/5 130/1/5
f 136/1/5 131/1/5 135/1/5
f 137/3/5 133/3/5 132/3/5
f 138/3/5 133/3/5 137/3/5
f 139/2/5 135/2/5 134/2/5
f 140/2/5 135/2/5 139/2/5
f 141/3/5 137/3/5 136/3/5
f 142/3/5 137/3/5 141/3/5
f 145/2/5 144/2/5 143/2/5
f 146/2/5 144/2/5 145/2/5
f 147/2/6 148/2/6 149/2/6
f 149/2/6 148/2/6 150/2/6
f 151/2/6 152/2/6 155/2/6
f 155/2/6 152/2/6 156/2/6
f 153/3/6 154/3/6 157/3/6
f 157/3/6 154/3/6 158/3/6
f 156/1/6 157/1/6 161/1/6
f 161/1/6 157/1/6 162/1/6
f 158/3/6 159/3/6 163/3/6
f 163/3/6 159/3/6 164/3/6
f 160/2/6 161/2/6 165/2/6
f 165/2/6 161/2/6 166/2/6
f 162/3/6 163/3/6 167/3/6
f 167/3/6 163/3/6 168/3/6
f 169/2/6 170/2/6 173/2/6
f 173/2/6 170/2/6 174/2/6
f 171/3/6 172/3/6 175/3/6
f 175/3/6 172/3/6 176/3/6
