# MagicaVoxel @ Ephtracy

# group
o 

# material
mtllib game-6.mtl
usemtl palette

# normals
vn -1 0 0
vn 1 0 0
vn 0 0 1
vn 0 0 -1
vn 0 -1 0
vn 0 1 0

# texcoords
vt 0.919922 0.5
vt 0.970703 0.5
vt 0.974609 0.5

# verts
v -0.1 2.6 0.2
v -0.1 2.6 -0.2
v -0.1 2.7 0.3
v -0.1 2.7 0.2
v -0.1 2.7 0.1
v -0.1 2.7 -0.1
v -0.1 2.7 -0.2
v -0.1 2.7 -0.3
v -0.1 2.8 0.2
v -0.1 2.8 0.1
v -0.1 2.8 -0.1
v -0.1 2.8 -0.2
v -0.1 2.9 0.2
v -0.1 2.9 0.1
v -0.1 3.1 0.2
v -0.1 3.1 0.1
v -0.1 3.2 0.2
v -0.1 3.2 0.1
v -0.1 3.2 -0.1
v -0.1 3.2 -0.2
v -0.1 3.3 0.3
v -0.1 3.3 0.2
v -0.1 3.3 0.1
v -0.1 3.3 -0.1
v -0.1 3.3 -0.2
v -0.1 3.3 -0.3
v -0.1 3.4 0.2
v -0.1 3.4 -0.2
v 0 2.5 0.2
v 0 2.5 -0.2
v 0 2.6 0.3
v 0 2.6 0.2
v 0 2.6 -0.2
v 0 2.6 -0.3
v 0 2.7 0.4
v 0 2.7 0.3
v 0 2.7 0.2
v 0 2.7 -0.2
v 0 2.7 -0.3
v 0 2.7 -0.4
v 0 3.3 0.4
v 0 3.3 0.3
v 0 3.3 0.2
v 0 3.3 -0.2
v 0 3.3 -0.3
v 0 3.3 -0.4
v 0 3.4 0.3
v 0 3.4 0.2
v 0 3.4 -0.2
v 0 3.4 -0.3
v 0 3.5 0.2
v 0 3.5 -0.2
v 0.1 2.5 0.2
v 0.1 2.5 -0.2
v 0.1 2.6 0.3
v 0.1 2.6 0.2
v 0.1 2.6 -0.2
v 0.1 2.6 -0.3
v 0.1 2.7 0.4
v 0.1 2.7 0.3
v 0.1 2.7 0.2
v 0.1 2.7 -0.2
v 0.1 2.7 -0.3
v 0.1 2.7 -0.4
v 0.1 3.3 0.4
v 0.1 3.3 0.3
v 0.1 3.3 0.2
v 0.1 3.3 -0.2
v 0.1 3.3 -0.3
v 0.1 3.3 -0.4
v 0.1 3.4 0.3
v 0.1 3.4 0.2
v 0.1 3.4 -0.2
v 0.1 3.4 -0.3
v 0.1 3.5 0.2
v 0.1 3.5 -0.2
v 0.2 2.6 0.2
v 0.2 2.6 -0.2
v 0.2 2.7 0.3
v 0.2 2.7 0.2
v 0.2 2.7 0.1
v 0.2 2.7 -0.1
v 0.2 2.7 -0.2
v 0.2 2.7 -0.3
v 0.2 2.8 0.2
v 0.2 2.8 0.1
v 0.2 2.8 -0.1
v 0.2 2.8 -0.2
v 0.2 2.9 -0.1
v 0.2 2.9 -0.2
v 0.2 3.1 -0.1
v 0.2 3.1 -0.2
v 0.2 3.2 0.2
v 0.2 3.2 0.1
v 0.2 3.2 -0.1
v 0.2 3.2 -0.2
v 0.2 3.3 0.3
v 0.2 3.3 0.2
v 0.2 3.3 0.1
v 0.2 3.3 -0.1
v 0.2 3.3 -0.2
v 0.2 3.3 -0.3
v 0.2 3.4 0.2
v 0.2 3.4 -0.2
v 0 2.7 0.4
v 0 3.3 0.4
v 0.1 2.7 0.4
v 0.1 3.3 0.4
v -0.1 2.7 0.3
v -0.1 3.3 0.3
v 0 2.6 0.3
v 0 2.7 0.3
v 0 3.3 0.3
v 0 3.4 0.3
v 0.1 2.6 0.3
v 0.1 2.7 0.3
v 0.1 3.3 0.3
v 0.1 3.4 0.3
v 0.2 2.7 0.3
v 0.2 3.3 0.3
v -0.1 2.6 0.2
v -0.1 2.7 0.2
v -0.1 3.3 0.2
v -0.1 3.4 0.2
v 0 2.5 0.2
v 0 2.6 0.2
v 0 2.7 0.2
v 0 3.3 0.2
v 0 3.4 0.2
v 0 3.5 0.2
v 0.1 2.5 0.2
v 0.1 2.6 0.2
v 0.1 2.7 0.2
v 0.1 3.3 0.2
v 0.1 3.4 0.2
v 0.1 3.5 0.2
v 0.2 2.6 0.2
v 0.2 2.7 0.2
v 0.2 3.3 0.2
v 0.2 3.4 0.2
v -0.1 2.6 -0.2
v -0.1 2.7 -0.2
v -0.1 3.3 -0.2
v -0.1 3.4 -0.2
v 0 2.5 -0.2
v 0 2.6 -0.2
v 0 2.7 -0.2
v 0 3.3 -0.2
v 0 3.4 -0.2
v 0 3.5 -0.2
v 0.1 2.5 -0.2
v 0.1 2.6 -0.2
v 0.1 2.7 -0.2
v 0.1 3.3 -0.2
v 0.1 3.4 -0.2
v 0.1 3.5 -0.2
v 0.2 2.6 -0.2
v 0.2 2.7 -0.2
v 0.2 3.3 -0.2
v 0.2 3.4 -0.2
v -0.1 2.7 -0.3
v -0.1 3.3 -0.3
v 0 2.6 -0.3
v 0 2.7 -0.3
v 0 3.3 -0.3
v 0 3.4 -0.3
v 0.1 2.6 -0.3
v 0.1 2.7 -0.3
v 0.1 3.3 -0.3
v 0.1 3.4 -0.3
v 0.2 2.7 -0.3
v 0.2 3.3 -0.3
v 0 2.7 -0.4
v 0 3.3 -0.4
v 0.1 2.7 -0.4
v 0.1 3.3 -0.4
v 0 2.5 0.2
v 0.1 2.5 0.2
v 0 2.5 -0.2
v 0.1 2.5 -0.2
v 0 2.6 0.3
v 0.1 2.6 0.3
v -0.1 2.6 0.2
v 0 2.6 0.2
v 0.1 2.6 0.2
v 0.2 2.6 0.2
v -0.1 2.6 -0.2
v 0 2.6 -0.2
v 0.1 2.6 -0.2
v 0.2 2.6 -0.2
v 0 2.6 -0.3
v 0.1 2.6 -0.3
v 0 2.7 0.4
v 0.1 2.7 0.4
v -0.1 2.7 0.3
v 0 2.7 0.3
v 0.1 2.7 0.3
v 0.2 2.7 0.3
v -0.1 2.7 0.2
v 0 2.7 0.2
v 0.1 2.7 0.2
v 0.2 2.7 0.2
v -0.1 2.7 -0.2
v 0 2.7 -0.2
v 0.1 2.7 -0.2
v 0.2 2.7 -0.2
v -0.1 2.7 -0.3
v 0 2.7 -0.3
v 0.1 2.7 -0.3
v 0.2 2.7 -0.3
v 0 2.7 -0.4
v 0.1 2.7 -0.4
v 0 3.3 0.4
v 0.1 3.3 0.4
v -0.1 3.3 0.3
v 0 3.3 0.3
v 0.1 3.3 0.3
v 0.2 3.3 0.3
v -0.1 3.3 0.2
v 0 3.3 0.2
v 0.1 3.3 0.2
v 0.2 3.3 0.2
v -0.1 3.3 -0.2
v 0 3.3 -0.2
v 0.1 3.3 -0.2
v 0.2 3.3 -0.2
v -0.1 3.3 -0.3
v 0 3.3 -0.3
v 0.1 3.3 -0.3
v 0.2 3.3 -0.3
v 0 3.3 -0.4
v 0.1 3.3 -0.4
v 0 3.4 0.3
v 0.1 3.4 0.3
v -0.1 3.4 0.2
v 0 3.4 0.2
v 0.1 3.4 0.2
v 0.2 3.4 0.2
v -0.1 3.4 -0.2
v 0 3.4 -0.2
v 0.1 3.4 -0.2
v 0.2 3.4 -0.2
v 0 3.4 -0.3
v 0.1 3.4 -0.3
v 0 3.5 0.2
v 0.1 3.5 0.2
v 0 3.5 -0.2
v 0.1 3.5 -0.2

# faces
f 4/1/1 2/1/1 1/1/1
f 5/1/1 2/1/1 4/1/1
f 6/1/1 2/1/1 5/1/1
f 7/1/1 2/1/1 6/1/1
f 9/1/1 4/1/1 3/1/1
f 9/1/1 5/1/1 4/1/1
f 10/3/1 6/3/1 5/3/1
f 10/1/1 5/1/1 9/1/1
f 11/1/1 8/1/1 7/1/1
f 11/3/1 6/3/1 10/3/1
f 11/1/1 7/1/1 6/1/1
f 12/1/1 8/1/1 11/1/1
f 13/3/1 10/3/1 9/3/1
f 13/1/1 9/1/1 3/1/1
f 14/1/1 11/1/1 10/1/1
f 14/3/1 10/3/1 13/3/1
f 15/1/1 13/1/1 3/1/1
f 15/1/1 14/1/1 13/1/1
f 16/1/1 11/1/1 14/1/1
f 16/1/1 14/1/1 15/1/1
f 17/1/1 15/1/1 3/1/1
f 17/3/1 16/3/1 15/3/1
f 18/1/1 11/1/1 16/1/1
f 18/3/1 16/3/1 17/3/1
f 19/3/1 12/3/1 11/3/1
f 19/1/1 11/1/1 18/1/1
f 20/1/1 8/1/1 12/1/1
f 20/3/1 12/3/1 19/3/1
f 21/1/1 18/1/1 17/1/1
f 21/1/1 17/1/1 3/1/1
f 22/1/1 18/1/1 21/1/1
f 23/3/1 19/3/1 18/3/1
f 23/1/1 18/1/1 22/1/1
f 24/1/1 20/1/1 19/1/1
f 24/3/1 19/3/1 23/3/1
f 25/1/1 8/1/1 20/1/1
f 25/1/1 20/1/1 24/1/1
f 26/1/1 8/1/1 25/1/1
f 27/1/1 24/1/1 23/1/1
f 27/1/1 25/1/1 24/1/1
f 27/1/1 23/1/1 22/1/1
f 28/1/1 25/1/1 27/1/1
f 32/2/1 30/2/1 29/2/1
f 33/2/1 30/2/1 32/2/1
f 36/2/1 32/2/1 31/2/1
f 37/2/1 32/2/1 36/2/1
f 38/2/1 34/2/1 33/2/1
f 39/2/1 34/2/1 38/2/1
f 41/2/1 36/2/1 35/2/1
f 42/2/1 36/2/1 41/2/1
f 45/2/1 40/2/1 39/2/1
f 46/2/1 40/2/1 45/2/1
f 47/2/1 43/2/1 42/2/1
f 48/2/1 43/2/1 47/2/1
f 49/2/1 45/2/1 44/2/1
f 50/2/1 45/2/1 49/2/1
f 51/2/1 49/2/1 48/2/1
f 52/2/1 49/2/1 51/2/1
f 53/2/2 54/2/2 56/2/2
f 56/2/2 54/2/2 57/2/2
f 55/2/2 56/2/2 60/2/2
f 60/2/2 56/2/2 61/2/2
f 57/2/2 58/2/2 62/2/2
f 62/2/2 58/2/2 63/2/2
f 59/2/2 60/2/2 65/2/2
f 65/2/2 60/2/2 66/2/2
f 63/2/2 64/2/2 69/2/2
f 69/2/2 64/2/2 70/2/2
f 66/2/2 67/2/2 71/2/2
f 71/2/2 67/2/2 72/2/2
f 68/2/2 69/2/2 73/2/2
f 73/2/2 69/2/2 74/2/2
f 72/2/2 73/2/2 75/2/2
f 75/2/2 73/2/2 76/2/2
f 77/1/2 78/1/2 80/1/2
f 80/1/2 78/1/2 81/1/2
f 81/1/2 78/1/2 82/1/2
f 82/1/2 78/1/2 83/1/2
f 79/1/2 80/1/2 85/1/2
f 80/1/2 81/1/2 85/1/2
f 81/3/2 82/3/2 86/3/2
f 85/1/2 81/1/2 86/1/2
f 83/1/2 84/1/2 87/1/2
f 86/3/2 82/3/2 87/3/2
f 82/1/2 83/1/2 87/1/2
f 87/1/2 84/1/2 88/1/2
f 86/1/2 87/1/2 89/1/2
f 87/3/2 88/3/2 89/3/2
f 88/1/2 84/1/2 90/1/2
f 89/3/2 88/3/2 90/3/2
f 86/1/2 89/1/2 91/1/2
f 89/1/2 90/1/2 91/1/2
f 90/1/2 84/1/2 92/1/2
f 91/1/2 90/1/2 92/1/2
f 85/3/2 86/3/2 93/3/2
f 79/1/2 85/1/2 93/1/2
f 86/1/2 91/1/2 94/1/2
f 93/3/2 86/3/2 94/3/2
f 91/3/2 92/3/2 95/3/2
f 94/1/2 91/1/2 95/1/2
f 92/1/2 84/1/2 96/1/2
f 95/3/2 92/3/2 96/3/2
f 93/1/2 94/1/2 97/1/2
f 79/1/2 93/1/2 97/1/2
f 97/1/2 94/1/2 98/1/2
f 94/3/2 95/3/2 99/3/2
f 98/1/2 94/1/2 99/1/2
f 95/1/2 96/1/2 100/1/2
f 99/3/2 95/3/2 100/3/2
f 96/1/2 84/1/2 101/1/2
f 100/1/2 96/1/2 101/1/2
f 101/1/2 84/1/2 102/1/2
f 99/1/2 100/1/2 103/1/2
f 100/1/2 101/1/2 103/1/2
f 98/1/2 99/1/2 103/1/2
f 103/1/2 101/1/2 104/1/2
f 107/2/3 106/2/3 105/2/3
f 108/2/3 106/2/3 107/2/3
f 112/1/3 110/1/3 109/1/3
f 113/1/3 110/1/3 112/1/3
f 115/2/3 112/2/3 111/2/3
f 116/2/3 112/2/3 115/2/3
f 117/2/3 114/2/3 113/2/3
f 118/2/3 114/2/3 117/2/3
f 119/1/3 117/1/3 116/1/3
f 120/1/3 117/1/3 119/1/3
f 126/1/3 122/1/3 121/1/3
f 127/1/3 122/1/3 126/1/3
f 128/1/3 124/1/3 123/1/3
f 129/1/3 124/1/3 128/1/3
f 131/2/3 126/2/3 125/2/3
f 132/2/3 126/2/3 131/2/3
f 135/2/3 130/2/3 129/2/3
f 136/2/3 130/2/3 135/2/3
f 137/1/3 133/1/3 132/1/3
f 138/1/3 133/1/3 137/1/3
f 139/1/3 135/1/3 134/1/3
f 140/1/3 135/1/3 139/1/3
f 141/1/4 142/1/4 146/1/4
f 146/1/4 142/1/4 147/1/4
f 143/1/4 144/1/4 148/1/4
f 148/1/4 144/1/4 149/1/4
f 145/2/4 146/2/4 151/2/4
f 151/2/4 146/2/4 152/2/4
f 149/2/4 150/2/4 155/2/4
f 155/2/4 150/2/4 156/2/4
f 152/1/4 153/1/4 157/1/4
f 157/1/4 153/1/4 158/1/4
f 154/1/4 155/1/4 159/1/4
f 159/1/4 155/1/4 160/1/4
f 161/1/4 162/1/4 164/1/4
f 164/1/4 162/1/4 165/1/4
f 163/2/4 164/2/4 167/2/4
f 167/2/4 164/2/4 168/2/4
f 165/2/4 166/2/4 169/2/4
f 169/2/4 166/2/4 170/2/4
f 168/1/4 169/1/4 171/1/4
f 171/1/4 169/1/4 172/1/4
f 173/2/4 174/2/4 175/2/4
f 175/2/4 174/2/4 176/2/4
f 179/2/5 178/2/5 177/2/5
f 180/2/5 178/2/5 179/2/5
f 184/2/5 182/2/5 181/2/5
f 185/2/5 182/2/5 184/2/5
f 187/1/5 184/1/5 183/1/5
f 188/1/5 184/1/5 187/1/5
f 189/1/5 186/1/5 185/1/5
f 190/1/5 186/1/5 189/1/5
f 191/2/5 189/2/5 188/2/5
f 192/2/5 189/2/5 191/2/5
f 196/2/5 194/2/5 193/2/5
f 197/2/5 194/2/5 196/2/5
f 199/1/5 196/1/5 195/1/5
f 200/1/5 196/1/5 199/1/5
f 201/1/5 198/1/5 197/1/5
f 202/1/5 198/1/5 201/1/5
f 207/1/5 204/1/5 203/1/5
f 208/1/5 204/1/5 207/1/5
f 209/1/5 206/1/5 205/1/5
f 210/1/5 206/1/5 209/1/5
f 211/2/5 209/2/5 208/2/5
f 212/2/5 209/2/5 211/2/5
f 213/2/6 214/2/6 216/2/6
f 216/2/6 214/2/6 217/2/6
f 215/1/6 216/1/6 219/1/6
f 219/1/6 216/1/6 220/1/6
f 217/1/6 218/1/6 221/1/6
f 221/1/6 218/1/6 222/1/6
f 223/1/6 224/1/6 227/1/6
f 227/1/6 224/1/6 228/1/6
f 225/1/6 226/1/6 229/1/6
f 229/1/6 226/1/6 230/1/6
f 228/2/6 229/2/6 231/2/6
f 231/2/6 229/2/6 232/2/6
f 233/2/6 234/2/6 236/2/6
f 236/2/6 234/2/6 237/2/6
f 235/1/6 236/1/6 239/1/6
f 239/1/6 236/1/6 240/1/6
f 237/1/6 238/1/6 241/1/6
f 241/1/6 238/1/6 242/1/6
f 240/2/6 241/2/6 243/2/6
f 243/2/6 241/2/6 244/2/6
f 245/2/6 246/2/6 247/2/6
f 247/2/6 246/2/6 248/2/6
