# MagicaVoxel @ Ephtracy

# group
o 

# material
mtllib game-0.mtl
usemtl palette

# normals
vn -1 0 0
vn 1 0 0
vn 0 0 1
vn 0 0 -1
vn 0 -1 0
vn 0 1 0

# texcoords
vt 0.595703 0.5
vt 0.623047 0.5
vt 0.626953 0.5
vt 0.634766 0.5
vt 0.642578 0.5

# verts
v -0.3 2.9 0.1
v -0.3 2.9 0
v -0.3 2.9 -0.1
v -0.3 3 0.1
v -0.3 3 0
v -0.3 3 -0.1
v -0.3 3.1 0.1
v -0.3 3.1 0
v -0.3 3.1 -0.1
v -0.2 2.8 0.1
v -0.2 2.8 -0.1
v -0.2 2.9 0.2
v -0.2 2.9 0.1
v -0.2 2.9 0
v -0.2 2.9 -0.1
v -0.2 2.9 -0.2
v -0.2 3 0.2
v -0.2 3 0.1
v -0.2 3 -0.1
v -0.2 3 -0.2
v -0.2 3.1 0.2
v -0.2 3.1 0.1
v -0.2 3.1 0
v -0.2 3.1 -0.1
v -0.2 3.1 -0.2
v -0.2 3.2 0.1
v -0.2 3.2 0
v -0.2 3.2 -0.1
v -0.1 2.7 0.1
v -0.1 2.7 0
v -0.1 2.7 -0.1
v -0.1 2.8 0.2
v -0.1 2.8 0.1
v -0.1 2.8 0
v -0.1 2.8 -0.1
v -0.1 2.8 -0.2
v -0.1 2.9 0.3
v -0.1 2.9 0.2
v -0.1 2.9 0.1
v -0.1 2.9 -0.1
v -0.1 2.9 -0.2
v -0.1 2.9 -0.3
v -0.1 3 0.3
v -0.1 3 0.2
v -0.1 3 -0.2
v -0.1 3 -0.3
v -0.1 3.1 0.3
v -0.1 3.1 0.2
v -0.1 3.1 0.1
v -0.1 3.1 -0.1
v -0.1 3.1 -0.2
v -0.1 3.1 -0.3
v -0.1 3.2 0.2
v -0.1 3.2 0.1
v -0.1 3.2 0
v -0.1 3.2 -0.1
v -0.1 3.2 -0.2
v -0.1 3.3 0.1
v -0.1 3.3 0
v -0.1 3.3 -0.1
v 0.1 2.7 0.1
v 0.1 2.7 0
v 0.1 2.7 -0.1
v 0.1 2.8 0.2
v 0.1 2.8 0.1
v 0.1 2.8 0
v 0.1 2.8 -0.1
v 0.1 2.8 -0.2
v 0.1 2.9 0.3
v 0.1 2.9 0.2
v 0.1 2.9 0.1
v 0.1 2.9 -0.1
v 0.1 2.9 -0.2
v 0.1 2.9 -0.3
v 0.1 3 0.3
v 0.1 3 0.2
v 0.1 3 -0.2
v 0.1 3 -0.3
v 0.1 3.1 0.3
v 0.1 3.1 0.2
v 0.1 3.1 0.1
v 0.1 3.1 -0.1
v 0.1 3.1 -0.2
v 0.1 3.1 -0.3
v 0.1 3.2 0.2
v 0.1 3.2 0.1
v 0.1 3.2 0
v 0.1 3.2 -0.1
v 0.1 3.2 -0.2
v 0.1 3.3 0.1
v 0.1 3.3 0
v 0.1 3.3 -0.1
v 0.2 2.8 0.1
v 0.2 2.8 -0.1
v 0.2 2.9 0.2
v 0.2 2.9 0.1
v 0.2 2.9 0
v 0.2 2.9 -0.1
v 0.2 2.9 -0.2
v 0.2 3 0.2
v 0.2 3 0.1
v 0.2 3 -0.1
v 0.2 3 -0.2
v 0.2 3.1 0.2
v 0.2 3.1 0.1
v 0.2 3.1 0
v 0.2 3.1 -0.1
v 0.2 3.1 -0.2
v 0.2 3.2 0.1
v 0.2 3.2 0
v 0.2 3.2 -0.1
v 0.3 2.9 0.1
v 0.3 2.9 0
v 0.3 2.9 -0.1
v 0.3 3 0.1
v 0.3 3 0
v 0.3 3 -0.1
v 0.3 3.1 0.1
v 0.3 3.1 0
v 0.3 3.1 -0.1
v -0.1 2.9 0.3
v -0.1 3 0.3
v -0.1 3.1 0.3
v 0 3 0.3
v 0 3.1 0.3
v 0.1 2.9 0.3
v 0.1 3 0.3
v 0.1 3.1 0.3
v -0.2 2.9 0.2
v -0.2 3 0.2
v -0.2 3.1 0.2
v -0.1 2.8 0.2
v -0.1 2.9 0.2
v -0.1 3 0.2
v -0.1 3.1 0.2
v -0.1 3.2 0.2
v 0 2.8 0.2
v 0 2.9 0.2
v 0 3.1 0.2
v 0 3.2 0.2
v 0.1 2.8 0.2
v 0.1 2.9 0.2
v 0.1 3 0.2
v 0.1 3.1 0.2
v 0.1 3.2 0.2
v 0.2 2.9 0.2
v 0.2 3 0.2
v 0.2 3.1 0.2
v -0.3 2.9 0.1
v -0.3 3 0.1
v -0.3 3.1 0.1
v -0.2 2.8 0.1
v -0.2 2.9 0.1
v -0.2 3 0.1
v -0.2 3.1 0.1
v -0.2 3.2 0.1
v -0.1 2.7 0.1
v -0.1 2.8 0.1
v -0.1 2.9 0.1
v -0.1 3.1 0.1
v -0.1 3.2 0.1
v -0.1 3.3 0.1
v 0 2.7 0.1
v 0 2.8 0.1
v 0 3.2 0.1
v 0 3.3 0.1
v 0.1 2.7 0.1
v 0.1 2.8 0.1
v 0.1 2.9 0.1
v 0.1 3.1 0.1
v 0.1 3.2 0.1
v 0.1 3.3 0.1
v 0.2 2.8 0.1
v 0.2 2.9 0.1
v 0.2 3 0.1
v 0.2 3.1 0.1
v 0.2 3.2 0.1
v 0.3 2.9 0.1
v 0.3 3 0.1
v 0.3 3.1 0.1
v -0.3 2.9 -0.1
v -0.3 3 -0.1
v -0.3 3.1 -0.1
v -0.2 2.8 -0.1
v -0.2 2.9 -0.1
v -0.2 3 -0.1
v -0.2 3.1 -0.1
v -0.2 3.2 -0.1
v -0.1 2.7 -0.1
v -0.1 2.8 -0.1
v -0.1 2.9 -0.1
v -0.1 3.1 -0.1
v -0.1 3.2 -0.1
v -0.1 3.3 -0.1
v 0 2.7 -0.1
v 0 2.8 -0.1
v 0 3.2 -0.1
v 0 3.3 -0.1
v 0.1 2.7 -0.1
v 0.1 2.8 -0.1
v 0.1 2.9 -0.1
v 0.1 3.1 -0.1
v 0.1 3.2 -0.1
v 0.1 3.3 -0.1
v 0.2 2.8 -0.1
v 0.2 2.9 -0.1
v 0.2 3 -0.1
v 0.2 3.1 -0.1
v 0.2 3.2 -0.1
v 0.3 2.9 -0.1
v 0.3 3 -0.1
v 0.3 3.1 -0.1
v -0.2 2.9 -0.2
v -0.2 3 -0.2
v -0.2 3.1 -0.2
v -0.1 2.8 -0.2
v -0.1 2.9 -0.2
v -0.1 3 -0.2
v -0.1 3.1 -0.2
v -0.1 3.2 -0.2
v 0 2.8 -0.2
v 0 2.9 -0.2
v 0 3.1 -0.2
v 0 3.2 -0.2
v 0.1 2.8 -0.2
v 0.1 2.9 -0.2
v 0.1 3 -0.2
v 0.1 3.1 -0.2
v 0.1 3.2 -0.2
v 0.2 2.9 -0.2
v 0.2 3 -0.2
v 0.2 3.1 -0.2
v -0.1 2.9 -0.3
v -0.1 3 -0.3
v -0.1 3.1 -0.3
v 0 2.9 -0.3
v 0 3 -0.3
v 0 3.1 -0.3
v 0.1 2.9 -0.3
v 0.1 3 -0.3
v 0.1 3.1 -0.3
v -0.1 2.7 0.1
v 0 2.7 0.1
v 0.1 2.7 0.1
v -0.1 2.7 0
v 0 2.7 0
v 0.1 2.7 0
v -0.1 2.7 -0.1
v 0 2.7 -0.1
v 0.1 2.7 -0.1
v -0.1 2.8 0.2
v 0 2.8 0.2
v 0.1 2.8 0.2
v -0.2 2.8 0.1
v -0.1 2.8 0.1
v 0 2.8 0.1
v 0.1 2.8 0.1
v 0.2 2.8 0.1
v -0.1 2.8 0
v 0.1 2.8 0
v -0.2 2.8 -0.1
v -0.1 2.8 -0.1
v 0 2.8 -0.1
v 0.1 2.8 -0.1
v 0.2 2.8 -0.1
v -0.1 2.8 -0.2
v 0 2.8 -0.2
v 0.1 2.8 -0.2
v -0.1 2.9 0.3
v 0.1 2.9 0.3
v -0.2 2.9 0.2
v -0.1 2.9 0.2
v 0 2.9 0.2
v 0.1 2.9 0.2
v 0.2 2.9 0.2
v -0.3 2.9 0.1
v -0.2 2.9 0.1
v -0.1 2.9 0.1
v 0.1 2.9 0.1
v 0.2 2.9 0.1
v 0.3 2.9 0.1
v -0.3 2.9 0
v -0.2 2.9 0
v 0.2 2.9 0
v 0.3 2.9 0
v -0.3 2.9 -0.1
v -0.2 2.9 -0.1
v -0.1 2.9 -0.1
v 0.1 2.9 -0.1
v 0.2 2.9 -0.1
v 0.3 2.9 -0.1
v -0.2 2.9 -0.2
v -0.1 2.9 -0.2
v 0 2.9 -0.2
v 0.1 2.9 -0.2
v 0.2 2.9 -0.2
v -0.1 2.9 -0.3
v 0 2.9 -0.3
v 0.1 2.9 -0.3
v -0.1 3.1 0.3
v 0 3.1 0.3
v 0.1 3.1 0.3
v -0.2 3.1 0.2
v -0.1 3.1 0.2
v 0 3.1 0.2
v 0.1 3.1 0.2
v 0.2 3.1 0.2
v -0.3 3.1 0.1
v -0.2 3.1 0.1
v -0.1 3.1 0.1
v 0.1 3.1 0.1
v 0.2 3.1 0.1
v 0.3 3.1 0.1
v -0.3 3.1 0
v -0.2 3.1 0
v 0.2 3.1 0
v 0.3 3.1 0
v -0.3 3.1 -0.1
v -0.2 3.1 -0.1
v -0.1 3.1 -0.1
v 0.1 3.1 -0.1
v 0.2 3.1 -0.1
v 0.3 3.1 -0.1
v -0.2 3.1 -0.2
v -0.1 3.1 -0.2
v 0 3.1 -0.2
v 0.1 3.1 -0.2
v 0.2 3.1 -0.2
v -0.1 3.1 -0.3
v 0 3.1 -0.3
v 0.1 3.1 -0.3
v -0.1 3.2 0.2
v 0 3.2 0.2
v 0.1 3.2 0.2
v -0.2 3.2 0.1
v -0.1 3.2 0.1
v 0 3.2 0.1
v 0.1 3.2 0.1
v 0.2 3.2 0.1
v -0.2 3.2 0
v -0.1 3.2 0
v 0.1 3.2 0
v 0.2 3.2 0
v -0.2 3.2 -0.1
v -0.1 3.2 -0.1
v 0 3.2 -0.1
v 0.1 3.2 -0.1
v 0.2 3.2 -0.1
v -0.1 3.2 -0.2
v 0 3.2 -0.2
v 0.1 3.2 -0.2
v -0.1 3.3 0.1
v 0 3.3 0.1
v 0.1 3.3 0.1
v -0.1 3.3 0
v 0 3.3 0
v 0.1 3.3 0
v -0.1 3.3 -0.1
v 0 3.3 -0.1
v 0.1 3.3 -0.1

# faces
f 4/4/1 2/4/1 1/4/1
f 5/5/1 3/5/1 2/5/1
f 5/4/1 2/4/1 4/4/1
f 6/5/1 3/5/1 5/5/1
f 7/5/1 5/5/1 4/5/1
f 8/1/1 6/1/1 5/1/1
f 8/5/1 5/5/1 7/5/1
f 9/1/1 6/1/1 8/1/1
f 13/4/1 11/4/1 10/4/1
f 14/4/1 11/4/1 13/4/1
f 15/4/1 11/4/1 14/4/1
f 17/3/1 13/3/1 12/3/1
f 18/3/1 13/3/1 17/3/1
f 19/1/1 16/1/1 15/1/1
f 20/1/1 16/1/1 19/1/1
f 21/4/1 18/4/1 17/4/1
f 22/4/1 18/4/1 21/4/1
f 24/4/1 20/4/1 19/4/1
f 25/4/1 20/4/1 24/4/1
f 26/1/1 23/1/1 22/1/1
f 27/4/1 24/4/1 23/4/1
f 27/1/1 23/1/1 26/1/1
f 28/4/1 24/4/1 27/4/1
f 33/4/1 30/4/1 29/4/1
f 34/5/1 31/5/1 30/5/1
f 34/4/1 30/4/1 33/4/1
f 35/5/1 31/5/1 34/5/1
f 38/5/1 33/5/1 32/5/1
f 39/5/1 33/5/1 38/5/1
f 40/4/1 36/4/1 35/4/1
f 41/4/1 36/4/1 40/4/1
f 43/4/1 38/4/1 37/4/1
f 44/4/1 38/4/1 43/4/1
f 45/4/1 42/4/1 41/4/1
f 46/4/1 42/4/1 45/4/1
f 47/3/1 44/3/1 43/3/1
f 48/3/1 44/3/1 47/3/1
f 51/5/1 46/5/1 45/5/1
f 52/5/1 46/5/1 51/5/1
f 53/3/1 49/3/1 48/3/1
f 54/3/1 49/3/1 53/3/1
f 56/4/1 51/4/1 50/4/1
f 57/4/1 51/4/1 56/4/1
f 58/2/1 55/2/1 54/2/1
f 59/5/1 56/5/1 55/5/1
f 59/2/1 55/2/1 58/2/1
f 60/5/1 56/5/1 59/5/1
f 61/5/2 62/5/2 65/5/2
f 62/2/2 63/2/2 66/2/2
f 65/5/2 62/5/2 66/5/2
f 66/2/2 63/2/2 67/2/2
f 64/3/2 65/3/2 70/3/2
f 70/3/2 65/3/2 71/3/2
f 67/3/2 68/3/2 72/3/2
f 72/3/2 68/3/2 73/3/2
f 69/4/2 70/4/2 75/4/2
f 75/4/2 70/4/2 76/4/2
f 73/2/2 74/2/2 77/2/2
f 77/2/2 74/2/2 78/2/2
f 75/2/2 76/2/2 79/2/2
f 79/2/2 76/2/2 80/2/2
f 77/4/2 78/4/2 83/4/2
f 83/4/2 78/4/2 84/4/2
f 80/4/2 81/4/2 85/4/2
f 85/4/2 81/4/2 86/4/2
f 82/1/2 83/1/2 88/1/2
f 88/1/2 83/1/2 89/1/2
f 86/3/2 87/3/2 90/3/2
f 87/4/2 88/4/2 91/4/2
f 90/3/2 87/3/2 91/3/2
f 91/4/2 88/4/2 92/4/2
f 93/4/2 94/4/2 96/4/2
f 96/4/2 94/4/2 97/4/2
f 97/4/2 94/4/2 98/4/2
f 95/4/2 96/4/2 100/4/2
f 100/4/2 96/4/2 101/4/2
f 98/4/2 99/4/2 102/4/2
f 102/4/2 99/4/2 103/4/2
f 100/5/2 101/5/2 104/5/2
f 104/5/2 101/5/2 105/5/2
f 102/5/2 103/5/2 107/5/2
f 107/5/2 103/5/2 108/5/2
f 105/4/2 106/4/2 109/4/2
f 106/2/2 107/2/2 110/2/2
f 109/4/2 106/4/2 110/4/2
f 110/2/2 107/2/2 111/2/2
f 112/2/2 113/2/2 115/2/2
f 113/4/2 114/4/2 116/4/2
f 115/2/2 113/2/2 116/2/2
f 116/4/2 114/4/2 117/4/2
f 115/4/2 116/4/2 118/4/2
f 116/3/2 117/3/2 119/3/2
f 118/4/2 116/4/2 119/4/2
f 119/3/2 117/3/2 120/3/2
f 124/4/3 122/4/3 121/4/3
f 124/3/3 123/3/3 122/3/3
f 125/3/3 123/3/3 124/3/3
f 126/4/3 124/4/3 121/4/3
f 127/2/3 125/2/3 124/2/3
f 127/4/3 124/4/3 126/4/3
f 128/2/3 125/2/3 127/2/3
f 133/3/3 130/3/3 129/3/3
f 134/4/3 131/4/3 130/4/3
f 134/3/3 130/3/3 133/3/3
f 135/4/3 131/4/3 134/4/3
f 137/5/3 133/5/3 132/5/3
f 138/5/3 133/5/3 137/5/3
f 139/3/3 136/3/3 135/3/3
f 140/3/3 136/3/3 139/3/3
f 141/3/3 138/3/3 137/3/3
f 142/3/3 138/3/3 141/3/3
f 144/4/3 140/4/3 139/4/3
f 145/4/3 140/4/3 144/4/3
f 146/4/3 143/4/3 142/4/3
f 147/5/3 144/5/3 143/5/3
f 147/4/3 143/4/3 146/4/3
f 148/5/3 144/5/3 147/5/3
f 153/4/3 150/4/3 149/4/3
f 154/5/3 151/5/3 150/5/3
f 154/4/3 150/4/3 153/4/3
f 155/5/3 151/5/3 154/5/3
f 158/4/3 153/4/3 152/4/3
f 159/4/3 153/4/3 158/4/3
f 160/1/3 156/1/3 155/1/3
f 161/1/3 156/1/3 160/1/3
f 163/4/3 158/4/3 157/4/3
f 164/4/3 158/4/3 163/4/3
f 165/2/3 162/2/3 161/2/3
f 166/2/3 162/2/3 165/2/3
f 167/5/3 164/5/3 163/5/3
f 168/5/3 164/5/3 167/5/3
f 171/3/3 166/3/3 165/3/3
f 172/3/3 166/3/3 171/3/3
f 173/4/3 169/4/3 168/4/3
f 174/4/3 169/4/3 173/4/3
f 176/4/3 171/4/3 170/4/3
f 177/4/3 171/4/3 176/4/3
f 178/2/3 175/2/3 174/2/3
f 179/4/3 176/4/3 175/4/3
f 179/2/3 175/2/3 178/2/3
f 180/4/3 176/4/3 179/4/3
f 181/5/4 182/5/4 185/5/4
f 182/1/4 183/1/4 186/1/4
f 185/5/4 182/5/4 186/5/4
f 186/1/4 183/1/4 187/1/4
f 184/4/4 185/4/4 190/4/4
f 190/4/4 185/4/4 191/4/4
f 187/4/4 188/4/4 192/4/4
f 192/4/4 188/4/4 193/4/4
f 189/5/4 190/5/4 195/5/4
f 195/5/4 190/5/4 196/5/4
f 193/5/4 194/5/4 197/5/4
f 197/5/4 194/5/4 198/5/4
f 195/2/4 196/2/4 199/2/4
f 199/2/4 196/2/4 200/2/4
f 197/4/4 198/4/4 203/4/4
f 203/4/4 198/4/4 204/4/4
f 200/4/4 201/4/4 205/4/4
f 205/4/4 201/4/4 206/4/4
f 202/2/4 203/2/4 208/2/4
f 208/2/4 203/2/4 209/2/4
f 206/4/4 207/4/4 210/4/4
f 207/3/4 208/3/4 211/3/4
f 210/4/4 207/4/4 211/4/4
f 211/3/4 208/3/4 212/3/4
f 213/1/4 214/1/4 217/1/4
f 214/4/4 215/4/4 218/4/4
f 217/1/4 214/1/4 218/1/4
f 218/4/4 215/4/4 219/4/4
f 216/4/4 217/4/4 221/4/4
f 221/4/4 217/4/4 222/4/4
f 219/4/4 220/4/4 223/4/4
f 223/4/4 220/4/4 224/4/4
f 221/3/4 222/3/4 225/3/4
f 225/3/4 222/3/4 226/3/4
f 223/1/4 224/1/4 228/1/4
f 228/1/4 224/1/4 229/1/4
f 226/4/4 227/4/4 230/4/4
f 227/5/4 228/5/4 231/5/4
f 230/4/4 227/4/4 231/4/4
f 231/5/4 228/5/4 232/5/4
f 233/4/4 234/4/4 236/4/4
f 234/5/4 235/5/4 237/5/4
f 236/4/4 234/4/4 237/4/4
f 237/5/4 235/5/4 238/5/4
f 236/2/4 237/2/4 239/2/4
f 237/4/4 238/4/4 240/4/4
f 239/2/4 237/2/4 240/2/4
f 240/4/4 238/4/4 241/4/4
f 245/4/5 243/4/5 242/4/5
f 246/5/5 244/5/5 243/5/5
f 246/4/5 243/4/5 245/4/5
f 247/5/5 244/5/5 246/5/5
f 248/5/5 246/5/5 245/5/5
f 249/2/5 247/2/5 246/2/5
f 249/5/5 246/5/5 248/5/5
f 250/2/5 247/2/5 249/2/5
f 255/5/5 252/5/5 251/5/5
f 256/3/5 253/3/5 252/3/5
f 256/5/5 252/5/5 255/5/5
f 257/3/5 253/3/5 256/3/5
f 259/4/5 255/4/5 254/4/5
f 260/4/5 258/4/5 257/4/5
f 261/4/5 259/4/5 254/4/5
f 262/4/5 259/4/5 261/4/5
f 264/4/5 258/4/5 260/4/5
f 265/4/5 258/4/5 264/4/5
f 266/4/5 263/4/5 262/4/5
f 267/3/5 264/3/5 263/3/5
f 267/4/5 263/4/5 266/4/5
f 268/3/5 264/3/5 267/3/5
f 272/4/5 270/4/5 269/4/5
f 273/4/5 270/4/5 272/4/5
f 274/4/5 270/4/5 273/4/5
f 277/3/5 272/3/5 271/3/5
f 278/3/5 272/3/5 277/3/5
f 279/4/5 275/4/5 274/4/5
f 280/4/5 275/4/5 279/4/5
f 282/4/5 277/4/5 276/4/5
f 283/4/5 277/4/5 282/4/5
f 284/2/5 281/2/5 280/2/5
f 285/2/5 281/2/5 284/2/5
f 286/5/5 283/5/5 282/5/5
f 287/5/5 283/5/5 286/5/5
f 290/4/5 285/4/5 284/4/5
f 291/4/5 285/4/5 290/4/5
f 292/1/5 288/1/5 287/1/5
f 293/1/5 288/1/5 292/1/5
f 295/4/5 290/4/5 289/4/5
f 296/4/5 290/4/5 295/4/5
f 297/4/5 294/4/5 293/4/5
f 298/2/5 295/2/5 294/2/5
f 298/4/5 294/4/5 297/4/5
f 299/2/5 295/2/5 298/2/5
f 300/3/6 301/3/6 304/3/6
f 301/2/6 302/2/6 305/2/6
f 304/3/6 301/3/6 305/3/6
f 305/2/6 302/2/6 306/2/6
f 303/4/6 304/4/6 309/4/6
f 309/4/6 304/4/6 310/4/6
f 306/5/6 307/5/6 311/5/6
f 311/5/6 307/5/6 312/5/6
f 308/5/6 309/5/6 314/5/6
f 314/5/6 309/5/6 315/5/6
f 312/4/6 313/4/6 316/4/6
f 316/4/6 313/4/6 317/4/6
f 314/1/6 315/1/6 318/1/6
f 318/1/6 315/1/6 319/1/6
f 316/3/6 317/3/6 322/3/6
f 322/3/6 317/3/6 323/3/6
f 319/4/6 320/4/6 324/4/6
f 324/4/6 320/4/6 325/4/6
f 321/5/6 322/5/6 327/5/6
f 327/5/6 322/5/6 328/5/6
f 325/5/6 326/5/6 329/5/6
f 326/4/6 327/4/6 330/4/6
f 329/5/6 326/5/6 330/5/6
f 330/4/6 327/4/6 331/4/6
f 332/3/6 333/3/6 336/3/6
f 333/4/6 334/4/6 337/4/6
f 336/3/6 333/3/6 337/3/6
f 337/4/6 334/4/6 338/4/6
f 335/1/6 336/1/6 340/1/6
f 340/1/6 336/1/6 341/1/6
f 338/4/6 339/4/6 342/4/6
f 342/4/6 339/4/6 343/4/6
f 340/4/6 341/4/6 344/4/6
f 344/4/6 341/4/6 345/4/6
f 342/2/6 343/2/6 347/2/6
f 347/2/6 343/2/6 348/2/6
f 345/4/6 346/4/6 349/4/6
f 346/1/6 347/1/6 350/1/6
f 349/4/6 346/4/6 350/4/6
f 350/1/6 347/1/6 351/1/6
f 352/2/6 353/2/6 355/2/6
f 353/3/6 354/3/6 356/3/6
f 355/2/6 353/2/6 356/2/6
f 356/3/6 354/3/6 357/3/6
f 355/5/6 356/5/6 358/5/6
f 356/4/6 357/4/6 359/4/6
f 358/5/6 356/5/6 359/5/6
f 359/4/6 357/4/6 360/4/6
