# MagicaVoxel @ Ephtracy

# group
o 

# material
mtllib gameUpdate1-3.mtl
usemtl palette

# normals
vn -1 0 0
vn 1 0 0
vn 0 0 1
vn 0 0 -1
vn 0 -1 0
vn 0 1 0

# texcoords
vt 0.634766 0.5
vt 0.759766 0.5
vt 0.935547 0.5
vt 0.990234 0.5
vt 0.994141 0.5

# verts
v -0.2 0 0.1
v -0.2 0 -0.1
v -0.2 0.2 0.1
v -0.2 0.2 -0.1
v -0.2 0.9 0.1
v -0.2 0.9 -0.1
v -0.2 1.1 0.1
v -0.2 1.1 -0.1
v -0.1 0 0.2
v -0.1 0 0.1
v -0.1 0 -0.1
v -0.1 0 -0.2
v -0.1 0.2 0.2
v -0.1 0.2 0.1
v -0.1 0.2 -0.1
v -0.1 0.2 -0.2
v -0.1 0.8 0.3
v -0.1 0.8 0.2
v -0.1 0.8 -0.2
v -0.1 0.8 -0.3
v -0.1 0.9 0.6
v -0.1 0.9 0.4
v -0.1 0.9 0.2
v -0.1 0.9 0.1
v -0.1 0.9 -0.1
v -0.1 0.9 -0.2
v -0.1 0.9 -0.4
v -0.1 0.9 -0.6
v -0.1 1 0.6
v -0.1 1 0.5
v -0.1 1 0.4
v -0.1 1 0.3
v -0.1 1 -0.3
v -0.1 1 -0.4
v -0.1 1 -0.5
v -0.1 1 -0.6
v -0.1 1.1 0.6
v -0.1 1.1 0.5
v -0.1 1.1 0.4
v -0.1 1.1 0.3
v -0.1 1.1 0.2
v -0.1 1.1 0.1
v -0.1 1.1 -0.1
v -0.1 1.1 -0.2
v -0.1 1.1 -0.3
v -0.1 1.1 -0.4
v -0.1 1.1 -0.5
v -0.1 1.1 -0.6
v -0.1 1.2 0.6
v -0.1 1.2 0.4
v -0.1 1.2 -0.4
v -0.1 1.2 -0.6
v -0.1 3 0.2
v -0.1 3 0.1
v -0.1 3 -0.1
v -0.1 3 -0.2
v -0.1 3.1 0.3
v -0.1 3.1 0.2
v -0.1 3.1 0.1
v -0.1 3.1 -0.1
v -0.1 3.1 -0.2
v -0.1 3.1 -0.3
v -0.1 3.2 0.2
v -0.1 3.2 0.1
v -0.1 3.2 -0.1
v -0.1 3.2 -0.2
v -0.1 3.3 0.1
v -0.1 3.3 -0.1
v 0.1 0 0.2
v 0.1 0 0.1
v 0.1 0 -0.1
v 0.1 0 -0.2
v 0.1 0.2 0.2
v 0.1 0.2 0.1
v 0.1 0.2 -0.1
v 0.1 0.2 -0.2
v 0.1 0.8 0.3
v 0.1 0.8 0.2
v 0.1 0.8 -0.2
v 0.1 0.8 -0.3
v 0.1 0.9 0.6
v 0.1 0.9 0.4
v 0.1 0.9 0.2
v 0.1 0.9 0.1
v 0.1 0.9 -0.1
v 0.1 0.9 -0.2
v 0.1 0.9 -0.4
v 0.1 0.9 -0.6
v 0.1 1 0.6
v 0.1 1 0.5
v 0.1 1 0.4
v 0.1 1 0.3
v 0.1 1 -0.3
v 0.1 1 -0.4
v 0.1 1 -0.5
v 0.1 1 -0.6
v 0.1 1.1 0.6
v 0.1 1.1 0.5
v 0.1 1.1 0.4
v 0.1 1.1 0.3
v 0.1 1.1 0.2
v 0.1 1.1 0.1
v 0.1 1.1 -0.1
v 0.1 1.1 -0.2
v 0.1 1.1 -0.3
v 0.1 1.1 -0.4
v 0.1 1.1 -0.5
v 0.1 1.1 -0.6
v 0.1 1.2 0.6
v 0.1 1.2 0.4
v 0.1 1.2 -0.4
v 0.1 1.2 -0.6
v 0.1 3 0.2
v 0.1 3 0.1
v 0.1 3 -0.1
v 0.1 3 -0.2
v 0.1 3.1 0.3
v 0.1 3.1 0.2
v 0.1 3.1 0.1
v 0.1 3.1 -0.1
v 0.1 3.1 -0.2
v 0.1 3.1 -0.3
v 0.1 3.2 0.2
v 0.1 3.2 0.1
v 0.1 3.2 -0.1
v 0.1 3.2 -0.2
v 0.1 3.3 0.1
v 0.1 3.3 -0.1
v 0.2 0 0.1
v 0.2 0 -0.1
v 0.2 0.2 0.1
v 0.2 0.2 -0.1
v 0.2 0.9 0.1
v 0.2 0.9 -0.1
v 0.2 1.1 0.1
v 0.2 1.1 -0.1
v -0.1 0.9 0.6
v -0.1 1 0.6
v -0.1 1.1 0.6
v -0.1 1.2 0.6
v 0.1 0.9 0.6
v 0.1 1 0.6
v 0.1 1.1 0.6
v 0.1 1.2 0.6
v -0.1 1 0.5
v -0.1 1.1 0.5
v 0.1 1 0.5
v 0.1 1.1 0.5
v -0.1 0.8 0.3
v -0.1 1 0.3
v -0.1 1.1 0.3
v -0.1 3.1 0.3
v 0.1 0.8 0.3
v 0.1 1 0.3
v 0.1 1.1 0.3
v 0.1 3.1 0.3
v -0.1 0 0.2
v -0.1 0.2 0.2
v -0.1 3.1 0.2
v -0.1 3.2 0.2
v 0.1 0 0.2
v 0.1 0.2 0.2
v 0.1 3.1 0.2
v 0.1 3.2 0.2
v -0.2 0 0.1
v -0.2 0.2 0.1
v -0.2 0.9 0.1
v -0.2 1.1 0.1
v -0.1 0 0.1
v -0.1 0.2 0.1
v -0.1 0.9 0.1
v -0.1 1.1 0.1
v -0.1 3.2 0.1
v -0.1 3.3 0.1
v 0.1 0 0.1
v 0.1 0.2 0.1
v 0.1 0.9 0.1
v 0.1 1.1 0.1
v 0.1 3.2 0.1
v 0.1 3.3 0.1
v 0.2 0 0.1
v 0.2 0.2 0.1
v 0.2 0.9 0.1
v 0.2 1.1 0.1
v -0.1 0.8 -0.2
v -0.1 0.9 -0.2
v 0.1 0.8 -0.2
v 0.1 0.9 -0.2
v -0.1 0.9 -0.4
v -0.1 1 -0.4
v -0.1 1.1 -0.4
v -0.1 1.2 -0.4
v 0.1 0.9 -0.4
v 0.1 1 -0.4
v 0.1 1.1 -0.4
v 0.1 1.2 -0.4
v -0.1 0.9 0.4
v -0.1 1 0.4
v -0.1 1.1 0.4
v -0.1 1.2 0.4
v 0.1 0.9 0.4
v 0.1 1 0.4
v 0.1 1.1 0.4
v 0.1 1.2 0.4
v -0.1 0.8 0.2
v -0.1 0.9 0.2
v 0.1 0.8 0.2
v 0.1 0.9 0.2
v -0.2 0 -0.1
v -0.2 0.2 -0.1
v -0.2 0.9 -0.1
v -0.2 1.1 -0.1
v -0.1 0 -0.1
v -0.1 0.2 -0.1
v -0.1 0.9 -0.1
v -0.1 1.1 -0.1
v -0.1 3.2 -0.1
v -0.1 3.3 -0.1
v 0.1 0 -0.1
v 0.1 0.2 -0.1
v 0.1 0.9 -0.1
v 0.1 1.1 -0.1
v 0.1 3.2 -0.1
v 0.1 3.3 -0.1
v 0.2 0 -0.1
v 0.2 0.2 -0.1
v 0.2 0.9 -0.1
v 0.2 1.1 -0.1
v -0.1 0 -0.2
v -0.1 0.2 -0.2
v -0.1 3.1 -0.2
v -0.1 3.2 -0.2
v 0.1 0 -0.2
v 0.1 0.2 -0.2
v 0.1 3.1 -0.2
v 0.1 3.2 -0.2
v -0.1 0.8 -0.3
v -0.1 1 -0.3
v -0.1 1.1 -0.3
v -0.1 3.1 -0.3
v 0.1 0.8 -0.3
v 0.1 1 -0.3
v 0.1 1.1 -0.3
v 0.1 3.1 -0.3
v -0.1 1 -0.5
v -0.1 1.1 -0.5
v 0.1 1 -0.5
v 0.1 1.1 -0.5
v -0.1 0.9 -0.6
v -0.1 1 -0.6
v -0.1 1.1 -0.6
v -0.1 1.2 -0.6
v 0.1 0.9 -0.6
v 0.1 1 -0.6
v 0.1 1.1 -0.6
v 0.1 1.2 -0.6
v -0.1 0 0.2
v 0.1 0 0.2
v -0.2 0 0.1
v -0.1 0 0.1
v 0.1 0 0.1
v 0.2 0 0.1
v -0.2 0 -0.1
v -0.1 0 -0.1
v 0.1 0 -0.1
v 0.2 0 -0.1
v -0.1 0 -0.2
v 0.1 0 -0.2
v -0.1 0.8 0.3
v 0.1 0.8 0.3
v -0.1 0.8 0.2
v 0.1 0.8 0.2
v -0.1 0.8 -0.2
v 0.1 0.8 -0.2
v -0.1 0.8 -0.3
v 0.1 0.8 -0.3
v -0.1 0.9 0.6
v 0.1 0.9 0.6
v -0.1 0.9 0.4
v 0.1 0.9 0.4
v -0.1 0.9 0.2
v 0.1 0.9 0.2
v -0.2 0.9 0.1
v -0.1 0.9 0.1
v 0.1 0.9 0.1
v 0.2 0.9 0.1
v -0.2 0.9 -0.1
v -0.1 0.9 -0.1
v 0.1 0.9 -0.1
v 0.2 0.9 -0.1
v -0.1 0.9 -0.2
v 0.1 0.9 -0.2
v -0.1 0.9 -0.4
v 0.1 0.9 -0.4
v -0.1 0.9 -0.6
v 0.1 0.9 -0.6
v -0.1 1 0.4
v 0.1 1 0.4
v -0.1 1 0.3
v 0.1 1 0.3
v -0.1 1 -0.3
v 0.1 1 -0.3
v -0.1 1 -0.4
v 0.1 1 -0.4
v -0.1 1.1 0.6
v 0.1 1.1 0.6
v -0.1 1.1 0.5
v 0.1 1.1 0.5
v -0.1 1.1 -0.5
v 0.1 1.1 -0.5
v -0.1 1.1 -0.6
v 0.1 1.1 -0.6
v -0.1 0.2 0.2
v 0.1 0.2 0.2
v -0.2 0.2 0.1
v -0.1 0.2 0.1
v 0.1 0.2 0.1
v 0.2 0.2 0.1
v -0.2 0.2 -0.1
v -0.1 0.2 -0.1
v 0.1 0.2 -0.1
v 0.2 0.2 -0.1
v -0.1 0.2 -0.2
v 0.1 0.2 -0.2
v -0.1 1 0.6
v 0.1 1 0.6
v -0.1 1 0.5
v 0.1 1 0.5
v -0.1 1 -0.5
v 0.1 1 -0.5
v -0.1 1 -0.6
v 0.1 1 -0.6
v -0.1 1.1 0.4
v 0.1 1.1 0.4
v -0.1 1.1 0.3
v 0.1 1.1 0.3
v -0.2 1.1 0.1
v -0.1 1.1 0.1
v 0.1 1.1 0.1
v 0.2 1.1 0.1
v -0.2 1.1 -0.1
v -0.1 1.1 -0.1
v 0.1 1.1 -0.1
v 0.2 1.1 -0.1
v -0.1 1.1 -0.3
v 0.1 1.1 -0.3
v -0.1 1.1 -0.4
v 0.1 1.1 -0.4
v -0.1 1.2 0.6
v 0.1 1.2 0.6
v -0.1 1.2 0.4
v 0.1 1.2 0.4
v -0.1 1.2 -0.4
v 0.1 1.2 -0.4
v -0.1 1.2 -0.6
v 0.1 1.2 -0.6
v -0.1 3.1 0.3
v 0.1 3.1 0.3
v -0.1 3.1 0.2
v 0.1 3.1 0.2
v -0.1 3.1 -0.2
v 0.1 3.1 -0.2
v -0.1 3.1 -0.3
v 0.1 3.1 -0.3
v -0.1 3.2 0.2
v 0.1 3.2 0.2
v -0.1 3.2 0.1
v 0.1 3.2 0.1
v -0.1 3.2 -0.1
v 0.1 3.2 -0.1
v -0.1 3.2 -0.2
v 0.1 3.2 -0.2
v -0.1 3.3 0.1
v 0.1 3.3 0.1
v -0.1 3.3 -0.1
v 0.1 3.3 -0.1

# faces
f 3/4/1 2/4/1 1/4/1
f 4/4/1 2/4/1 3/4/1
f 7/1/1 6/1/1 5/1/1
f 8/1/1 6/1/1 7/1/1
f 13/4/1 10/4/1 9/4/1
f 14/4/1 10/4/1 13/4/1
f 15/4/1 12/4/1 11/4/1
f 16/4/1 12/4/1 15/4/1
f 23/5/1 18/5/1 17/5/1
f 24/5/1 15/5/1 14/5/1
f 25/5/1 15/5/1 24/5/1
f 26/5/1 20/5/1 19/5/1
f 29/5/1 22/5/1 21/5/1
f 30/5/1 22/5/1 29/5/1
f 31/5/1 22/5/1 30/5/1
f 32/5/1 23/5/1 17/5/1
f 32/5/1 24/5/1 23/5/1
f 33/5/1 26/5/1 25/5/1
f 33/5/1 20/5/1 26/5/1
f 34/5/1 28/5/1 27/5/1
f 35/5/1 28/5/1 34/5/1
f 36/5/1 28/5/1 35/5/1
f 38/5/1 31/5/1 30/5/1
f 38/5/1 32/5/1 31/5/1
f 39/5/1 32/5/1 38/5/1
f 40/5/1 24/5/1 32/5/1
f 40/5/1 32/5/1 39/5/1
f 41/5/1 24/5/1 40/5/1
f 42/5/1 24/5/1 41/5/1
f 43/5/1 33/5/1 25/5/1
f 43/5/1 35/5/1 34/5/1
f 43/5/1 34/5/1 33/5/1
f 44/5/1 35/5/1 43/5/1
f 45/5/1 35/5/1 44/5/1
f 46/5/1 35/5/1 45/5/1
f 47/5/1 35/5/1 46/5/1
f 49/5/1 39/5/1 38/5/1
f 49/5/1 38/5/1 37/5/1
f 50/5/1 39/5/1 49/5/1
f 51/5/1 48/5/1 47/5/1
f 51/5/1 47/5/1 46/5/1
f 52/5/1 48/5/1 51/5/1
f 53/4/1 42/4/1 41/4/1
f 53/2/1 41/2/1 40/2/1
f 54/5/1 43/5/1 42/5/1
f 54/4/1 42/4/1 53/4/1
f 55/4/1 44/4/1 43/4/1
f 55/5/1 43/5/1 54/5/1
f 56/2/1 45/2/1 44/2/1
f 56/4/1 44/4/1 55/4/1
f 57/2/1 54/2/1 53/2/1
f 57/2/1 53/2/1 40/2/1
f 58/2/1 54/2/1 57/2/1
f 59/4/1 55/4/1 54/4/1
f 59/2/1 54/2/1 58/2/1
f 60/2/1 56/2/1 55/2/1
f 60/4/1 55/4/1 59/4/1
f 61/2/1 45/2/1 56/2/1
f 61/2/1 56/2/1 60/2/1
f 62/2/1 45/2/1 61/2/1
f 63/2/1 60/2/1 59/2/1
f 63/2/1 61/2/1 60/2/1
f 63/2/1 59/2/1 58/2/1
f 64/2/1 61/2/1 63/2/1
f 65/2/1 61/2/1 64/2/1
f 66/2/1 61/2/1 65/2/1
f 67/2/1 65/2/1 64/2/1
f 68/2/1 65/2/1 67/2/1
f 69/4/2 70/4/2 73/4/2
f 73/4/2 70/4/2 74/4/2
f 71/4/2 72/4/2 75/4/2
f 75/4/2 72/4/2 76/4/2
f 77/5/2 78/5/2 83/5/2
f 74/5/2 75/5/2 84/5/2
f 84/5/2 75/5/2 85/5/2
f 79/5/2 80/5/2 86/5/2
f 81/5/2 82/5/2 89/5/2
f 89/5/2 82/5/2 90/5/2
f 90/5/2 82/5/2 91/5/2
f 77/5/2 83/5/2 92/5/2
f 83/5/2 84/5/2 92/5/2
f 85/5/2 86/5/2 93/5/2
f 86/5/2 80/5/2 93/5/2
f 87/5/2 88/5/2 94/5/2
f 94/5/2 88/5/2 95/5/2
f 95/5/2 88/5/2 96/5/2
f 90/5/2 91/5/2 98/5/2
f 91/5/2 92/5/2 98/5/2
f 98/5/2 92/5/2 99/5/2
f 92/5/2 84/5/2 100/5/2
f 99/5/2 92/5/2 100/5/2
f 100/5/2 84/5/2 101/5/2
f 101/5/2 84/5/2 102/5/2
f 85/5/2 93/5/2 103/5/2
f 94/5/2 95/5/2 103/5/2
f 93/5/2 94/5/2 103/5/2
f 103/5/2 95/5/2 104/5/2
f 104/5/2 95/5/2 105/5/2
f 105/5/2 95/5/2 106/5/2
f 106/5/2 95/5/2 107/5/2
f 98/5/2 99/5/2 109/5/2
f 97/5/2 98/5/2 109/5/2
f 109/5/2 99/5/2 110/5/2
f 107/5/2 108/5/2 111/5/2
f 106/5/2 107/5/2 111/5/2
f 111/5/2 108/5/2 112/5/2
f 101/4/2 102/4/2 113/4/2
f 100/2/2 101/2/2 113/2/2
f 102/5/2 103/5/2 114/5/2
f 113/4/2 102/4/2 114/4/2
f 103/4/2 104/4/2 115/4/2
f 114/5/2 103/5/2 115/5/2
f 104/2/2 105/2/2 116/2/2
f 115/4/2 104/4/2 116/4/2
f 113/2/2 114/2/2 117/2/2
f 100/2/2 113/2/2 117/2/2
f 117/2/2 114/2/2 118/2/2
f 114/4/2 115/4/2 119/4/2
f 118/2/2 114/2/2 119/2/2
f 115/2/2 116/2/2 120/2/2
f 119/4/2 115/4/2 120/4/2
f 116/2/2 105/2/2 121/2/2
f 120/2/2 116/2/2 121/2/2
f 121/2/2 105/2/2 122/2/2
f 119/2/2 120/2/2 123/2/2
f 120/2/2 121/2/2 123/2/2
f 118/2/2 119/2/2 123/2/2
f 123/2/2 121/2/2 124/2/2
f 124/2/2 121/2/2 125/2/2
f 125/2/2 121/2/2 126/2/2
f 124/2/2 125/2/2 127/2/2
f 127/2/2 125/2/2 128/2/2
f 129/4/2 130/4/2 131/4/2
f 131/4/2 130/4/2 132/4/2
f 133/1/2 134/1/2 135/1/2
f 135/1/2 134/1/2 136/1/2
f 141/5/3 138/5/3 137/5/3
f 142/5/3 138/5/3 141/5/3
f 143/5/3 140/5/3 139/5/3
f 144/5/3 140/5/3 143/5/3
f 147/5/3 146/5/3 145/5/3
f 148/5/3 146/5/3 147/5/3
f 153/5/3 150/5/3 149/5/3
f 154/5/3 150/5/3 153/5/3
f 155/2/3 152/2/3 151/2/3
f 156/2/3 152/2/3 155/2/3
f 161/4/3 158/4/3 157/4/3
f 162/4/3 158/4/3 161/4/3
f 163/2/3 160/2/3 159/2/3
f 164/2/3 160/2/3 163/2/3
f 169/4/3 166/4/3 165/4/3
f 170/4/3 166/4/3 169/4/3
f 171/1/3 168/1/3 167/1/3
f 172/1/3 168/1/3 171/1/3
f 176/5/3 171/5/3 170/5/3
f 177/5/3 171/5/3 176/5/3
f 179/2/3 174/2/3 173/2/3
f 180/2/3 174/2/3 179/2/3
f 181/4/3 176/4/3 175/4/3
f 182/4/3 176/4/3 181/4/3
f 183/1/3 178/1/3 177/1/3
f 184/1/3 178/1/3 183/1/3
f 187/5/3 186/5/3 185/5/3
f 188/5/3 186/5/3 187/5/3
f 193/5/3 190/5/3 189/5/3
f 194/5/3 190/5/3 193/5/3
f 195/5/3 192/5/3 191/5/3
f 196/5/3 192/5/3 195/5/3
f 197/5/4 198/5/4 201/5/4
f 201/5/4 198/5/4 202/5/4
f 199/5/4 200/5/4 203/5/4
f 203/5/4 200/5/4 204/5/4
f 205/5/4 206/5/4 207/5/4
f 207/5/4 206/5/4 208/5/4
f 209/4/4 210/4/4 213/4/4
f 213/4/4 210/4/4 214/4/4
f 211/1/4 212/1/4 215/1/4
f 215/1/4 212/1/4 216/1/4
f 214/5/4 215/5/4 220/5/4
f 220/5/4 215/5/4 221/5/4
f 217/2/4 218/2/4 223/2/4
f 223/2/4 218/2/4 224/2/4
f 219/4/4 220/4/4 225/4/4
f 225/4/4 220/4/4 226/4/4
f 221/1/4 222/1/4 227/1/4
f 227/1/4 222/1/4 228/1/4
f 229/4/4 230/4/4 233/4/4
f 233/4/4 230/4/4 234/4/4
f 231/2/4 232/2/4 235/2/4
f 235/2/4 232/2/4 236/2/4
f 237/5/4 238/5/4 241/5/4
f 241/5/4 238/5/4 242/5/4
f 239/2/4 240/2/4 243/2/4
f 243/2/4 240/2/4 244/2/4
f 245/5/4 246/5/4 247/5/4
f 247/5/4 246/5/4 248/5/4
f 249/5/4 250/5/4 253/5/4
f 253/5/4 250/5/4 254/5/4
f 251/5/4 252/5/4 255/5/4
f 255/5/4 252/5/4 256/5/4
f 260/4/5 258/4/5 257/4/5
f 261/4/5 258/4/5 260/4/5
f 263/4/5 260/4/5 259/4/5
f 263/4/5 262/4/5 261/4/5
f 263/4/5 261/4/5 260/4/5
f 264/4/5 262/4/5 263/4/5
f 265/4/5 262/4/5 264/4/5
f 266/4/5 262/4/5 265/4/5
f 267/4/5 265/4/5 264/4/5
f 268/4/5 265/4/5 267/4/5
f 271/5/5 270/5/5 269/5/5
f 272/5/5 270/5/5 271/5/5
f 275/5/5 274/5/5 273/5/5
f 276/5/5 274/5/5 275/5/5
f 279/5/5 278/5/5 277/5/5
f 280/5/5 278/5/5 279/5/5
f 284/5/5 282/5/5 281/5/5
f 285/5/5 282/5/5 284/5/5
f 287/1/5 284/1/5 283/1/5
f 288/1/5 284/1/5 287/1/5
f 289/1/5 286/1/5 285/1/5
f 290/1/5 286/1/5 289/1/5
f 291/5/5 289/5/5 288/5/5
f 292/5/5 289/5/5 291/5/5
f 295/5/5 294/5/5 293/5/5
f 296/5/5 294/5/5 295/5/5
f 299/5/5 298/5/5 297/5/5
f 300/5/5 298/5/5 299/5/5
f 303/5/5 302/5/5 301/5/5
f 304/5/5 302/5/5 303/5/5
f 307/5/5 306/5/5 305/5/5
f 308/5/5 306/5/5 307/5/5
f 311/5/5 310/5/5 309/5/5
f 312/5/5 310/5/5 311/5/5
f 313/4/6 314/4/6 316/4/6
f 316/4/6 314/4/6 317/4/6
f 315/4/6 316/4/6 319/4/6
f 319/4/6 316/4/6 320/4/6
f 317/4/6 318/4/6 321/4/6
f 321/4/6 318/4/6 322/4/6
f 320/4/6 321/4/6 323/4/6
f 323/4/6 321/4/6 324/4/6
f 325/5/6 326/5/6 327/5/6
f 327/5/6 326/5/6 328/5/6
f 329/5/6 330/5/6 331/5/6
f 331/5/6 330/5/6 332/5/6
f 333/5/6 334/5/6 335/5/6
f 335/5/6 334/5/6 336/5/6
f 337/1/6 338/1/6 341/1/6
f 341/1/6 338/1/6 342/1/6
f 339/1/6 340/1/6 343/1/6
f 343/1/6 340/1/6 344/1/6
f 345/5/6 346/5/6 347/5/6
f 347/5/6 346/5/6 348/5/6
f 349/5/6 350/5/6 351/5/6
f 351/5/6 350/5/6 352/5/6
f 353/5/6 354/5/6 355/5/6
f 355/5/6 354/5/6 356/5/6
f 357/2/6 358/2/6 359/2/6
f 359/2/6 358/2/6 360/2/6
f 361/2/6 362/2/6 363/2/6
f 363/2/6 362/2/6 364/2/6
f 365/2/6 366/2/6 367/2/6
f 367/2/6 366/2/6 368/2/6
f 369/2/6 370/2/6 371/2/6
f 371/2/6 370/2/6 372/2/6
f 373/2/6 374/2/6 375/2/6
f 375/2/6 374/2/6 376/2/6
