# MagicaVoxel @ Ephtracy

# material
mtllib game-18.mtl
usemtl palette

# normals
vn -1 0 0
vn 1 0 0
vn 0 0 1
vn 0 0 -1
vn 0 -1 0
vn 0 1 0

# texcoords
vt 0.146484 0.5
vt 0.173828 0.5
vt 0.212891 0.5
vt 0.373047 0.5

# verts
v -3 2 1
v -3 2 -0
v -3 2 -1
v -3 3 1
v -3 3 -0
v -3 3 -1
v -3 4 1
v -3 4 -0
v -3 4 -1
v -2 1 1
v -2 1 -0
v -2 1 -1
v -2 2 2
v -2 2 1
v -2 2 -0
v -2 2 -1
v -2 2 -2
v -2 3 2
v -2 3 1
v -2 3 -1
v -2 3 -2
v -2 4 2
v -2 4 1
v -2 4 -0
v -2 4 -1
v -2 4 -2
v -2 5 1
v -2 5 -0
v -2 5 -1
v -1 0 1
v -1 0 -1
v -1 1 2
v -1 1 1
v -1 1 -0
v -1 1 -1
v -1 1 -2
v -1 2 3
v -1 2 2
v -1 2 1
v -1 2 -1
v -1 2 -2
v -1 2 -3
v -1 3 3
v -1 3 2
v -1 3 -2
v -1 3 -3
v -1 4 3
v -1 4 2
v -1 4 1
v -1 4 -1
v -1 4 -2
v -1 4 -3
v -1 5 2
v -1 5 1
v -1 5 -0
v -1 5 -1
v -1 5 -2
v -1 6 1
v -1 6 -0
v -1 6 -1
v 1 0 1
v 1 0 -0
v 1 0 -1
v 1 1 2
v 1 1 1
v 1 1 -0
v 1 1 -1
v 1 1 -2
v 1 2 3
v 1 2 2
v 1 2 1
v 1 2 -1
v 1 2 -2
v 1 2 -3
v 1 3 3
v 1 3 2
v 1 3 -2
v 1 3 -3
v 1 4 3
v 1 4 2
v 1 4 1
v 1 4 -1
v 1 4 -2
v 1 4 -3
v 1 5 2
v 1 5 1
v 1 5 -0
v 1 5 -1
v 1 5 -2
v 1 6 1
v 1 6 -0
v 1 6 -1
v 2 1 1
v 2 1 -0
v 2 1 -1
v 2 2 2
v 2 2 1
v 2 2 -0
v 2 2 -1
v 2 2 -2
v 2 3 2
v 2 3 1
v 2 3 -1
v 2 3 -2
v 2 4 2
v 2 4 1
v 2 4 -0
v 2 4 -1
v 2 4 -2
v 2 5 1
v 2 5 -1
v 3 2 1
v 3 2 -0
v 3 2 -1
v 3 3 1
v 3 3 -0
v 3 3 -1
v 3 4 1
v 3 4 -0
v 3 4 -1
v -1 2 3
v -1 3 3
v -1 4 3
v 0 2 3
v 0 3 3
v 1 2 3
v 1 3 3
v 1 4 3
v -2 2 2
v -2 3 2
v -2 4 2
v -1 1 2
v -1 2 2
v -1 3 2
v -1 4 2
v -1 5 2
v 0 2 2
v 0 4 2
v 0 5 2
v 1 1 2
v 1 2 2
v 1 3 2
v 1 4 2
v 1 5 2
v 2 2 2
v 2 3 2
v 2 4 2
v -3 2 1
v -3 3 1
v -3 4 1
v -2 1 1
v -2 2 1
v -2 3 1
v -2 4 1
v -2 5 1
v -1 0 1
v -1 1 1
v -1 2 1
v -1 4 1
v -1 5 1
v -1 6 1
v 0 0 1
v 0 1 1
v 0 5 1
v 0 6 1
v 1 0 1
v 1 1 1
v 1 2 1
v 1 4 1
v 1 5 1
v 1 6 1
v 2 1 1
v 2 2 1
v 2 3 1
v 2 4 1
v 2 5 1
v 3 2 1
v 3 3 1
v 3 4 1
v -3 2 -1
v -3 3 -1
v -3 4 -1
v -2 1 -1
v -2 2 -1
v -2 3 -1
v -2 4 -1
v -2 5 -1
v -1 0 -1
v -1 1 -1
v -1 2 -1
v -1 4 -1
v -1 5 -1
v -1 6 -1
v 0 1 -1
v 0 5 -1
v 0 6 -1
v 1 0 -1
v 1 1 -1
v 1 2 -1
v 1 4 -1
v 1 5 -1
v 1 6 -1
v 2 1 -1
v 2 2 -1
v 2 3 -1
v 2 4 -1
v 2 5 -1
v 3 2 -1
v 3 3 -1
v 3 4 -1
v -2 2 -2
v -2 3 -2
v -2 4 -2
v -1 1 -2
v -1 2 -2
v -1 3 -2
v -1 4 -2
v -1 5 -2
v 0 1 -2
v 0 2 -2
v 0 4 -2
v 0 5 -2
v 1 1 -2
v 1 2 -2
v 1 3 -2
v 1 4 -2
v 1 5 -2
v 2 2 -2
v 2 3 -2
v 2 4 -2
v -1 2 -3
v -1 3 -3
v -1 4 -3
v 0 2 -3
v 0 3 -3
v 0 4 -3
v 1 2 -3
v 1 3 -3
v 1 4 -3
v -1 0 1
v 0 0 1
v 1 0 1
v 0 0 -0
v 1 0 -0
v -1 0 -1
v 1 0 -1
v -1 1 2
v 1 1 2
v -2 1 1
v -1 1 1
v 0 1 1
v 1 1 1
v 2 1 1
v -2 1 -0
v -1 1 -0
v 1 1 -0
v 2 1 -0
v -2 1 -1
v -1 1 -1
v 0 1 -1
v 1 1 -1
v 2 1 -1
v -1 1 -2
v 0 1 -2
v 1 1 -2
v -1 2 3
v 0 2 3
v 1 2 3
v -2 2 2
v -1 2 2
v 0 2 2
v 1 2 2
v 2 2 2
v -3 2 1
v -2 2 1
v -1 2 1
v 1 2 1
v 2 2 1
v 3 2 1
v -3 2 -0
v -2 2 -0
v 2 2 -0
v 3 2 -0
v -3 2 -1
v -2 2 -1
v -1 2 -1
v 1 2 -1
v 2 2 -1
v 3 2 -1
v -2 2 -2
v -1 2 -2
v 0 2 -2
v 1 2 -2
v 2 2 -2
v -1 2 -3
v 0 2 -3
v 1 2 -3
v -1 4 3
v 1 4 3
v -2 4 2
v -1 4 2
v 0 4 2
v 1 4 2
v 2 4 2
v -3 4 1
v -2 4 1
v -1 4 1
v 1 4 1
v 2 4 1
v 3 4 1
v -3 4 -0
v -2 4 -0
v 2 4 -0
v 3 4 -0
v -3 4 -1
v -2 4 -1
v -1 4 -1
v 1 4 -1
v 2 4 -1
v 3 4 -1
v -2 4 -2
v -1 4 -2
v 0 4 -2
v 1 4 -2
v 2 4 -2
v -1 4 -3
v 0 4 -3
v 1 4 -3
v -1 5 2
v 0 5 2
v 1 5 2
v -2 5 1
v -1 5 1
v 0 5 1
v 1 5 1
v 2 5 1
v -2 5 -0
v -1 5 -0
v 1 5 -0
v -2 5 -1
v -1 5 -1
v 0 5 -1
v 1 5 -1
v 2 5 -1
v -1 5 -2
v 0 5 -2
v 1 5 -2
v -1 6 1
v 0 6 1
v 1 6 1
v -1 6 -0
v 0 6 -0
v 1 6 -0
v -1 6 -1
v 0 6 -1
v 1 6 -1

# faces
f 4/2/1 2/2/1 1/2/1
f 5/4/1 3/4/1 2/4/1
f 5/2/1 2/2/1 4/2/1
f 6/4/1 3/4/1 5/4/1
f 7/4/1 5/4/1 4/4/1
f 8/2/1 6/2/1 5/2/1
f 8/4/1 5/4/1 7/4/1
f 9/2/1 6/2/1 8/2/1
f 14/1/1 11/1/1 10/1/1
f 15/2/1 12/2/1 11/2/1
f 15/1/1 11/1/1 14/1/1
f 16/2/1 12/2/1 15/2/1
f 18/4/1 14/4/1 13/4/1
f 19/4/1 14/4/1 18/4/1
f 20/2/1 17/2/1 16/2/1
f 21/2/1 17/2/1 20/2/1
f 22/2/1 19/2/1 18/2/1
f 23/2/1 19/2/1 22/2/1
f 25/1/1 21/1/1 20/1/1
f 26/1/1 21/1/1 25/1/1
f 27/2/1 24/2/1 23/2/1
f 28/1/1 25/1/1 24/1/1
f 28/2/1 24/2/1 27/2/1
f 29/1/1 25/1/1 28/1/1
f 33/1/1 31/1/1 30/1/1
f 34/1/1 31/1/1 33/1/1
f 35/1/1 31/1/1 34/1/1
f 38/1/1 33/1/1 32/1/1
f 39/1/1 33/1/1 38/1/1
f 40/4/1 36/4/1 35/4/1
f 41/4/1 36/4/1 40/4/1
f 43/1/1 38/1/1 37/1/1
f 44/1/1 38/1/1 43/1/1
f 45/1/1 42/1/1 41/1/1
f 46/1/1 42/1/1 45/1/1
f 47/4/1 44/4/1 43/4/1
f 48/4/1 44/4/1 47/4/1
f 51/2/1 46/2/1 45/2/1
f 52/2/1 46/2/1 51/2/1
f 53/1/1 49/1/1 48/1/1
f 54/1/1 49/1/1 53/1/1
f 56/4/1 51/4/1 50/4/1
f 57/4/1 51/4/1 56/4/1
f 58/4/1 55/4/1 54/4/1
f 59/1/1 56/1/1 55/1/1
f 59/4/1 55/4/1 58/4/1
f 60/1/1 56/1/1 59/1/1
f 61/4/2 62/4/2 65/4/2
f 62/1/2 63/1/2 66/1/2
f 65/4/2 62/4/2 66/4/2
f 66/1/2 63/1/2 67/1/2
f 64/1/2 65/1/2 70/1/2
f 70/1/2 65/1/2 71/1/2
f 67/1/2 68/1/2 72/1/2
f 72/1/2 68/1/2 73/1/2
f 69/2/2 70/2/2 75/2/2
f 75/2/2 70/2/2 76/2/2
f 73/4/2 74/4/2 77/4/2
f 77/4/2 74/4/2 78/4/2
f 75/4/2 76/4/2 79/4/2
f 79/4/2 76/4/2 80/4/2
f 77/1/2 78/1/2 83/1/2
f 83/1/2 78/1/2 84/1/2
f 80/2/2 81/2/2 85/2/2
f 85/2/2 81/2/2 86/2/2
f 82/1/2 83/1/2 88/1/2
f 88/1/2 83/1/2 89/1/2
f 86/1/2 87/1/2 90/1/2
f 87/4/2 88/4/2 91/4/2
f 90/1/2 87/1/2 91/1/2
f 91/4/2 88/4/2 92/4/2
f 93/1/2 94/1/2 97/1/2
f 94/4/2 95/4/2 98/4/2
f 97/1/2 94/1/2 98/1/2
f 98/4/2 95/4/2 99/4/2
f 96/1/2 97/1/2 101/1/2
f 101/1/2 97/1/2 102/1/2
f 99/1/2 100/1/2 103/1/2
f 103/1/2 100/1/2 104/1/2
f 101/4/2 102/4/2 105/4/2
f 105/4/2 102/4/2 106/4/2
f 103/4/2 104/4/2 108/4/2
f 108/4/2 104/4/2 109/4/2
f 106/1/2 107/1/2 110/1/2
f 107/1/2 108/1/2 110/1/2
f 110/1/2 108/1/2 111/1/2
f 112/1/2 113/1/2 115/1/2
f 113/3/2 114/3/2 116/3/2
f 115/1/2 113/1/2 116/1/2
f 116/3/2 114/3/2 117/3/2
f 115/4/2 116/4/2 118/4/2
f 116/2/2 117/2/2 119/2/2
f 118/4/2 116/4/2 119/4/2
f 119/2/2 117/2/2 120/2/2
f 124/1/3 122/1/3 121/1/3
f 125/4/3 123/4/3 122/4/3
f 125/1/3 122/1/3 124/1/3
f 126/2/3 125/2/3 124/2/3
f 127/4/3 123/4/3 125/4/3
f 127/2/3 125/2/3 126/2/3
f 128/4/3 123/4/3 127/4/3
f 133/4/3 130/4/3 129/4/3
f 134/2/3 131/2/3 130/2/3
f 134/4/3 130/4/3 133/4/3
f 135/2/3 131/2/3 134/2/3
f 137/1/3 133/1/3 132/1/3
f 138/1/3 136/1/3 135/1/3
f 139/1/3 136/1/3 138/1/3
f 140/1/3 137/1/3 132/1/3
f 141/1/3 137/1/3 140/1/3
f 143/2/3 139/2/3 138/2/3
f 144/2/3 139/2/3 143/2/3
f 145/1/3 142/1/3 141/1/3
f 146/4/3 143/4/3 142/4/3
f 146/1/3 142/1/3 145/1/3
f 147/4/3 143/4/3 146/4/3
f 152/2/3 149/2/3 148/2/3
f 153/4/3 150/4/3 149/4/3
f 153/2/3 149/2/3 152/2/3
f 154/4/3 150/4/3 153/4/3
f 157/1/3 152/1/3 151/1/3
f 158/1/3 152/1/3 157/1/3
f 159/2/3 155/2/3 154/2/3
f 160/2/3 155/2/3 159/2/3
f 162/1/3 157/1/3 156/1/3
f 163/1/3 157/1/3 162/1/3
f 164/4/3 161/4/3 160/4/3
f 165/4/3 161/4/3 164/4/3
f 166/4/3 163/4/3 162/4/3
f 167/4/3 163/4/3 166/4/3
f 170/1/3 165/1/3 164/1/3
f 171/1/3 165/1/3 170/1/3
f 172/1/3 168/1/3 167/1/3
f 173/1/3 168/1/3 172/1/3
f 175/1/3 170/1/3 169/1/3
f 176/1/3 170/1/3 175/1/3
f 177/1/3 174/1/3 173/1/3
f 178/4/3 175/4/3 174/4/3
f 178/1/3 174/1/3 177/1/3
f 179/4/3 175/4/3 178/4/3
f 180/4/4 181/4/4 184/4/4
f 181/2/4 182/2/4 185/2/4
f 184/4/4 181/4/4 185/4/4
f 185/2/4 182/2/4 186/2/4
f 183/2/4 184/2/4 189/2/4
f 189/2/4 184/2/4 190/2/4
f 186/1/4 187/1/4 191/1/4
f 191/1/4 187/1/4 192/1/4
f 188/1/4 189/1/4 194/1/4
f 192/1/4 193/1/4 195/1/4
f 195/1/4 193/1/4 196/1/4
f 188/1/4 194/1/4 197/1/4
f 197/1/4 194/1/4 198/1/4
f 195/4/4 196/4/4 201/4/4
f 201/4/4 196/4/4 202/4/4
f 198/4/4 199/4/4 203/4/4
f 203/4/4 199/4/4 204/4/4
f 200/1/4 201/1/4 206/1/4
f 206/1/4 201/1/4 207/1/4
f 204/3/4 205/3/4 208/3/4
f 205/2/4 206/2/4 209/2/4
f 208/3/4 205/3/4 209/3/4
f 209/2/4 206/2/4 210/2/4
f 211/2/4 212/2/4 215/2/4
f 212/1/4 213/1/4 216/1/4
f 215/2/4 212/2/4 216/2/4
f 216/1/4 213/1/4 217/1/4
f 214/4/4 215/4/4 219/4/4
f 219/4/4 215/4/4 220/4/4
f 217/4/4 218/4/4 221/4/4
f 221/4/4 218/4/4 222/4/4
f 219/1/4 220/1/4 223/1/4
f 223/1/4 220/1/4 224/1/4
f 221/1/4 222/1/4 226/1/4
f 226/1/4 222/1/4 227/1/4
f 224/1/4 225/1/4 228/1/4
f 225/4/4 226/4/4 229/4/4
f 228/1/4 225/1/4 229/1/4
f 229/4/4 226/4/4 230/4/4
f 231/1/4 232/1/4 234/1/4
f 232/2/4 233/2/4 235/2/4
f 234/1/4 232/1/4 235/1/4
f 235/2/4 233/2/4 236/2/4
f 234/4/4 235/4/4 237/4/4
f 235/1/4 236/1/4 238/1/4
f 237/4/4 235/4/4 238/4/4
f 238/1/4 236/1/4 239/1/4
f 243/1/5 241/1/5 240/1/5
f 243/4/5 242/4/5 241/4/5
f 244/4/5 242/4/5 243/4/5
f 245/1/5 243/1/5 240/1/5
f 245/1/5 244/1/5 243/1/5
f 246/1/5 244/1/5 245/1/5
f 250/1/5 248/1/5 247/1/5
f 251/1/5 248/1/5 250/1/5
f 252/1/5 248/1/5 251/1/5
f 254/1/5 250/1/5 249/1/5
f 255/1/5 250/1/5 254/1/5
f 256/1/5 253/1/5 252/1/5
f 257/1/5 253/1/5 256/1/5
f 258/2/5 255/2/5 254/2/5
f 259/2/5 255/2/5 258/2/5
f 261/4/5 257/4/5 256/4/5
f 262/4/5 257/4/5 261/4/5
f 263/4/5 260/4/5 259/4/5
f 264/1/5 261/1/5 260/1/5
f 264/4/5 260/4/5 263/4/5
f 265/1/5 261/1/5 264/1/5
f 270/1/5 267/1/5 266/1/5
f 271/2/5 268/2/5 267/2/5
f 271/1/5 267/1/5 270/1/5
f 272/2/5 268/2/5 271/2/5
f 275/4/5 270/4/5 269/4/5
f 276/4/5 270/4/5 275/4/5
f 277/1/5 273/1/5 272/1/5
f 278/1/5 273/1/5 277/1/5
f 280/2/5 275/2/5 274/2/5
f 281/2/5 275/2/5 280/2/5
f 282/1/5 279/1/5 278/1/5
f 283/1/5 279/1/5 282/1/5
f 284/4/5 281/4/5 280/4/5
f 285/4/5 281/4/5 284/4/5
f 288/3/5 283/3/5 282/3/5
f 289/3/5 283/3/5 288/3/5
f 290/2/5 286/2/5 285/2/5
f 291/2/5 286/2/5 290/2/5
f 293/1/5 288/1/5 287/1/5
f 294/1/5 288/1/5 293/1/5
f 295/1/5 292/1/5 291/1/5
f 296/4/5 293/4/5 292/4/5
f 296/1/5 292/1/5 295/1/5
f 297/4/5 293/4/5 296/4/5
f 298/4/6 299/4/6 301/4/6
f 301/4/6 299/4/6 302/4/6
f 302/4/6 299/4/6 303/4/6
f 300/2/6 301/2/6 306/2/6
f 306/2/6 301/2/6 307/2/6
f 303/4/6 304/4/6 308/4/6
f 308/4/6 304/4/6 309/4/6
f 305/4/6 306/4/6 311/4/6
f 311/4/6 306/4/6 312/4/6
f 309/4/6 310/4/6 313/4/6
f 313/4/6 310/4/6 314/4/6
f 311/2/6 312/2/6 315/2/6
f 315/2/6 312/2/6 316/2/6
f 313/2/6 314/2/6 319/2/6
f 319/2/6 314/2/6 320/2/6
f 316/1/6 317/1/6 321/1/6
f 321/1/6 317/1/6 322/1/6
f 318/4/6 319/4/6 324/4/6
f 324/4/6 319/4/6 325/4/6
f 322/2/6 323/2/6 326/2/6
f 323/1/6 324/1/6 327/1/6
f 326/2/6 323/2/6 327/2/6
f 327/1/6 324/1/6 328/1/6
f 329/1/6 330/1/6 333/1/6
f 330/2/6 331/2/6 334/2/6
f 333/1/6 330/1/6 334/1/6
f 334/2/6 331/2/6 335/2/6
f 332/2/6 333/2/6 337/2/6
f 337/2/6 333/2/6 338/2/6
f 335/1/6 336/1/6 339/1/6
f 337/1/6 338/1/6 340/1/6
f 340/1/6 338/1/6 341/1/6
f 339/1/6 336/1/6 343/1/6
f 343/1/6 336/1/6 344/1/6
f 341/4/6 342/4/6 345/4/6
f 342/1/6 343/1/6 346/1/6
f 345/4/6 342/4/6 346/4/6
f 346/1/6 343/1/6 347/1/6
f 348/4/6 349/4/6 351/4/6
f 349/1/6 350/1/6 352/1/6
f 351/4/6 349/4/6 352/4/6
f 352/1/6 350/1/6 353/1/6
f 351/1/6 352/1/6 354/1/6
f 352/4/6 353/4/6 355/4/6
f 354/1/6 352/1/6 355/1/6
f 355/4/6 353/4/6 356/4/6
