# MagicaVoxel @ Ephtracy

# material
mtllib game-17.mtl
usemtl palette

# normals
vn -1 0 0
vn 1 0 0
vn 0 0 1
vn 0 0 -1
vn 0 -1 0
vn 0 1 0

# texcoords
vt 0.146484 0.5
vt 0.208984 0.5
vt 0.279297 0.5
vt 0.935547 0.5
vt 0.982422 0.5
vt 0.986328 0.5

# verts
v -3 25 1
v -3 25 -1
v -3 26 1
v -3 26 -1
v -2 0 1
v -2 0 -1
v -2 2 1
v -2 2 -1
v -2 24 1
v -2 24 -1
v -2 25 2
v -2 25 1
v -2 25 -1
v -2 25 -2
v -2 26 2
v -2 26 1
v -2 26 -1
v -2 26 -2
v -2 28 1
v -2 28 -0
v -2 29 1
v -2 29 -0
v -2 30 1
v -2 30 -1
v -1 0 2
v -1 0 1
v -1 0 -1
v -1 0 -2
v -1 2 2
v -1 2 1
v -1 2 -1
v -1 2 -2
v -1 24 2
v -1 24 1
v -1 24 -1
v -1 24 -2
v -1 25 3
v -1 25 2
v -1 25 1
v -1 25 -1
v -1 25 -2
v -1 25 -3
v -1 26 3
v -1 26 2
v -1 26 1
v -1 26 -1
v -1 26 -2
v -1 26 -3
v -1 28 2
v -1 28 1
v -1 29 2
v -1 29 1
v -1 30 2
v -1 30 1
v -1 30 -0
v -1 30 -1
v -1 30 -2
v -1 31 1
v -1 31 -0
v -1 31 -1
v 1 0 2
v 1 0 1
v 1 0 -1
v 1 0 -2
v 1 2 2
v 1 2 1
v 1 2 -1
v 1 2 -2
v 1 24 2
v 1 24 1
v 1 24 -1
v 1 24 -2
v 1 25 3
v 1 25 2
v 1 25 1
v 1 25 -1
v 1 25 -2
v 1 25 -3
v 1 26 3
v 1 26 2
v 1 26 1
v 1 26 -1
v 1 26 -2
v 1 26 -3
v 1 28 1
v 1 28 -1
v 1 28 -2
v 1 29 1
v 1 29 -1
v 1 29 -2
v 1 30 2
v 1 30 1
v 1 30 -1
v 1 30 -2
v 1 31 1
v 1 31 -1
v 2 0 1
v 2 0 -1
v 2 2 1
v 2 2 -1
v 2 24 1
v 2 24 -1
v 2 25 2
v 2 25 1
v 2 25 -1
v 2 25 -2
v 2 26 2
v 2 26 1
v 2 26 -1
v 2 26 -2
v 2 28 1
v 2 28 -0
v 2 29 1
v 2 29 -0
v 2 30 1
v 2 30 -1
v 3 25 1
v 3 25 -1
v 3 26 1
v 3 26 -1
v -1 25 3
v -1 26 3
v 1 25 3
v 1 26 3
v -2 25 2
v -2 26 2
v -1 0 2
v -1 2 2
v -1 24 2
v -1 25 2
v -1 26 2
v -1 28 2
v -1 29 2
v -1 30 2
v 0 28 2
v 0 29 2
v 1 0 2
v 1 2 2
v 1 24 2
v 1 25 2
v 1 26 2
v 1 30 2
v 2 25 2
v 2 26 2
v -3 25 1
v -3 26 1
v -2 0 1
v -2 2 1
v -2 24 1
v -2 25 1
v -2 26 1
v -2 28 1
v -2 29 1
v -2 30 1
v -1 0 1
v -1 2 1
v -1 24 1
v -1 25 1
v -1 26 1
v -1 28 1
v -1 29 1
v -1 30 1
v -1 31 1
v 1 0 1
v 1 2 1
v 1 24 1
v 1 25 1
v 1 26 1
v 1 28 1
v 1 29 1
v 1 30 1
v 1 31 1
v 2 0 1
v 2 2 1
v 2 24 1
v 2 25 1
v 2 26 1
v 2 28 1
v 2 29 1
v 2 30 1
v 3 25 1
v 3 26 1
v -3 25 -1
v -3 26 -1
v -2 0 -1
v -2 2 -1
v -2 24 -1
v -2 25 -1
v -2 26 -1
v -2 30 -1
v -1 0 -1
v -1 2 -1
v -1 24 -1
v -1 25 -1
v -1 26 -1
v -1 30 -1
v -1 31 -1
v 0 30 -1
v 0 31 -1
v 1 0 -1
v 1 2 -1
v 1 24 -1
v 1 25 -1
v 1 26 -1
v 1 28 -1
v 1 29 -1
v 1 30 -1
v 1 31 -1
v 2 0 -1
v 2 2 -1
v 2 24 -1
v 2 25 -1
v 2 26 -1
v 2 30 -1
v 3 25 -1
v 3 26 -1
v -2 25 -2
v -2 26 -2
v -1 0 -2
v -1 2 -2
v -1 24 -2
v -1 25 -2
v -1 26 -2
v -1 30 -2
v 0 28 -2
v 0 29 -2
v 1 0 -2
v 1 2 -2
v 1 24 -2
v 1 25 -2
v 1 26 -2
v 1 28 -2
v 1 29 -2
v 1 30 -2
v 2 25 -2
v 2 26 -2
v -1 25 -3
v -1 26 -3
v 1 25 -3
v 1 26 -3
v -1 0 2
v 1 0 2
v -2 0 1
v -1 0 1
v 1 0 1
v 2 0 1
v -2 0 -1
v -1 0 -1
v 1 0 -1
v 2 0 -1
v -1 0 -2
v 1 0 -2
v -1 24 2
v 1 24 2
v -2 24 1
v -1 24 1
v 1 24 1
v 2 24 1
v -2 24 -1
v -1 24 -1
v 1 24 -1
v 2 24 -1
v -1 24 -2
v 1 24 -2
v -1 25 3
v 1 25 3
v -2 25 2
v -1 25 2
v 1 25 2
v 2 25 2
v -3 25 1
v -2 25 1
v -1 25 1
v 1 25 1
v 2 25 1
v 3 25 1
v -3 25 -1
v -2 25 -1
v -1 25 -1
v 1 25 -1
v 2 25 -1
v 3 25 -1
v -2 25 -2
v -1 25 -2
v 1 25 -2
v 2 25 -2
v -1 25 -3
v 1 25 -3
v -1 2 2
v 1 2 2
v -2 2 1
v -1 2 1
v 1 2 1
v 2 2 1
v -2 2 -1
v -1 2 -1
v 1 2 -1
v 2 2 -1
v -1 2 -2
v 1 2 -2
v -1 26 3
v 1 26 3
v -2 26 2
v -1 26 2
v 1 26 2
v 2 26 2
v -3 26 1
v -2 26 1
v -1 26 1
v 1 26 1
v 2 26 1
v 3 26 1
v -3 26 -1
v -2 26 -1
v -1 26 -1
v 1 26 -1
v 2 26 -1
v 3 26 -1
v -2 26 -2
v -1 26 -2
v 1 26 -2
v 2 26 -2
v -1 26 -3
v 1 26 -3
v -1 30 2
v 1 30 2
v -2 30 1
v -1 30 1
v 1 30 1
v 2 30 1
v -1 30 -0
v -2 30 -1
v -1 30 -1
v 0 30 -1
v 1 30 -1
v 2 30 -1
v -1 30 -2
v 1 30 -2
v -1 31 1
v 1 31 1
v -1 31 -0
v 0 31 -0
v -1 31 -1
v 0 31 -1
v 1 31 -1

# faces
f 3/5/1 2/5/1 1/5/1
f 4/5/1 2/5/1 3/5/1
f 7/4/1 6/4/1 5/4/1
f 8/4/1 6/4/1 7/4/1
f 12/5/1 10/5/1 9/5/1
f 13/5/1 10/5/1 12/5/1
f 15/5/1 12/5/1 11/5/1
f 16/5/1 12/5/1 15/5/1
f 17/5/1 14/5/1 13/5/1
f 18/5/1 14/5/1 17/5/1
f 19/1/1 17/1/1 16/1/1
f 20/1/1 17/1/1 19/1/1
f 21/2/1 20/2/1 19/2/1
f 22/1/1 17/1/1 20/1/1
f 22/2/1 20/2/1 21/2/1
f 23/1/1 22/1/1 21/1/1
f 24/1/1 17/1/1 22/1/1
f 24/1/1 22/1/1 23/1/1
f 29/4/1 26/4/1 25/4/1
f 30/4/1 26/4/1 29/4/1
f 31/4/1 28/4/1 27/4/1
f 32/4/1 28/4/1 31/4/1
f 34/3/1 31/3/1 30/3/1
f 35/3/1 31/3/1 34/3/1
f 38/5/1 34/5/1 33/5/1
f 39/5/1 34/5/1 38/5/1
f 40/5/1 36/5/1 35/5/1
f 41/5/1 36/5/1 40/5/1
f 43/5/1 38/5/1 37/5/1
f 44/5/1 38/5/1 43/5/1
f 47/5/1 42/5/1 41/5/1
f 48/5/1 42/5/1 47/5/1
f 49/1/1 45/1/1 44/1/1
f 50/1/1 45/1/1 49/1/1
f 51/2/1 50/2/1 49/2/1
f 52/2/1 50/2/1 51/2/1
f 53/1/1 52/1/1 51/1/1
f 54/1/1 52/1/1 53/1/1
f 56/1/1 47/1/1 46/1/1
f 57/1/1 47/1/1 56/1/1
f 58/1/1 55/1/1 54/1/1
f 59/2/1 56/2/1 55/2/1
f 59/1/1 55/1/1 58/1/1
f 60/2/1 56/2/1 59/2/1
f 61/4/2 62/4/2 65/4/2
f 65/4/2 62/4/2 66/4/2
f 63/4/2 64/4/2 67/4/2
f 67/4/2 64/4/2 68/4/2
f 66/3/2 67/3/2 70/3/2
f 70/3/2 67/3/2 71/3/2
f 69/5/2 70/5/2 74/5/2
f 74/5/2 70/5/2 75/5/2
f 71/5/2 72/5/2 76/5/2
f 76/5/2 72/5/2 77/5/2
f 73/5/2 74/5/2 79/5/2
f 79/5/2 74/5/2 80/5/2
f 77/5/2 78/5/2 83/5/2
f 83/5/2 78/5/2 84/5/2
f 80/1/2 81/1/2 85/1/2
f 82/1/2 83/1/2 86/1/2
f 86/1/2 83/1/2 87/1/2
f 80/1/2 85/1/2 88/1/2
f 86/2/2 87/2/2 89/2/2
f 89/2/2 87/2/2 90/2/2
f 80/1/2 88/1/2 91/1/2
f 91/1/2 88/1/2 92/1/2
f 89/1/2 90/1/2 93/1/2
f 93/1/2 90/1/2 94/1/2
f 92/1/2 93/1/2 95/1/2
f 95/1/2 93/1/2 96/1/2
f 97/4/2 98/4/2 99/4/2
f 99/4/2 98/4/2 100/4/2
f 101/5/2 102/5/2 104/5/2
f 104/5/2 102/5/2 105/5/2
f 103/5/2 104/5/2 107/5/2
f 107/5/2 104/5/2 108/5/2
f 105/5/2 106/5/2 109/5/2
f 109/5/2 106/5/2 110/5/2
f 108/1/2 109/1/2 111/1/2
f 111/1/2 109/1/2 112/1/2
f 111/2/2 112/2/2 113/2/2
f 112/1/2 109/1/2 114/1/2
f 113/2/2 112/2/2 114/2/2
f 113/1/2 114/1/2 115/1/2
f 114/1/2 109/1/2 116/1/2
f 115/1/2 114/1/2 116/1/2
f 117/5/2 118/5/2 119/5/2
f 119/5/2 118/5/2 120/5/2
f 123/5/3 122/5/3 121/5/3
f 124/5/3 122/5/3 123/5/3
f 130/5/3 126/5/3 125/5/3
f 131/5/3 126/5/3 130/5/3
f 135/1/3 132/1/3 131/1/3
f 135/2/3 133/2/3 132/2/3
f 136/1/3 134/1/3 133/1/3
f 136/2/3 133/2/3 135/2/3
f 137/4/3 128/4/3 127/4/3
f 138/4/3 128/4/3 137/4/3
f 139/5/3 130/5/3 129/5/3
f 140/5/3 130/5/3 139/5/3
f 141/1/3 135/1/3 131/1/3
f 141/1/3 136/1/3 135/1/3
f 142/1/3 134/1/3 136/1/3
f 142/1/3 136/1/3 141/1/3
f 143/5/3 141/5/3 140/5/3
f 144/5/3 141/5/3 143/5/3
f 150/5/3 146/5/3 145/5/3
f 151/5/3 146/5/3 150/5/3
f 155/4/3 148/4/3 147/4/3
f 156/4/3 148/4/3 155/4/3
f 157/5/3 150/5/3 149/5/3
f 158/5/3 150/5/3 157/5/3
f 159/1/3 152/1/3 151/1/3
f 160/2/3 153/2/3 152/2/3
f 160/1/3 152/1/3 159/1/3
f 161/1/3 154/1/3 153/1/3
f 161/2/3 153/2/3 160/2/3
f 162/1/3 154/1/3 161/1/3
f 165/3/3 157/3/3 156/3/3
f 166/3/3 157/3/3 165/3/3
f 171/1/3 163/1/3 162/1/3
f 172/1/3 163/1/3 171/1/3
f 173/4/3 165/4/3 164/4/3
f 174/4/3 165/4/3 173/4/3
f 175/5/3 167/5/3 166/5/3
f 176/5/3 167/5/3 175/5/3
f 177/1/3 169/1/3 168/1/3
f 178/2/3 170/2/3 169/2/3
f 178/1/3 169/1/3 177/1/3
f 179/1/3 171/1/3 170/1/3
f 179/2/3 170/2/3 178/2/3
f 180/1/3 171/1/3 179/1/3
f 181/5/3 177/5/3 176/5/3
f 182/5/3 177/5/3 181/5/3
f 183/5/4 184/5/4 188/5/4
f 188/5/4 184/5/4 189/5/4
f 185/4/4 186/4/4 191/4/4
f 191/4/4 186/4/4 192/4/4
f 187/5/4 188/5/4 193/5/4
f 193/5/4 188/5/4 194/5/4
f 189/1/4 190/1/4 195/1/4
f 195/1/4 190/1/4 196/1/4
f 196/2/4 197/2/4 198/2/4
f 198/2/4 197/2/4 199/2/4
f 192/3/4 193/3/4 201/3/4
f 201/3/4 193/3/4 202/3/4
f 198/1/4 199/1/4 207/1/4
f 207/1/4 199/1/4 208/1/4
f 200/4/4 201/4/4 209/4/4
f 209/4/4 201/4/4 210/4/4
f 202/5/4 203/5/4 211/5/4
f 211/5/4 203/5/4 212/5/4
f 205/1/4 206/1/4 213/1/4
f 206/1/4 207/1/4 213/1/4
f 204/1/4 205/1/4 213/1/4
f 213/1/4 207/1/4 214/1/4
f 212/5/4 213/5/4 215/5/4
f 215/5/4 213/5/4 216/5/4
f 217/5/4 218/5/4 222/5/4
f 222/5/4 218/5/4 223/5/4
f 223/1/4 224/1/4 225/1/4
f 225/1/4 224/1/4 226/1/4
f 219/4/4 220/4/4 227/4/4
f 227/4/4 220/4/4 228/4/4
f 221/5/4 222/5/4 229/5/4
f 229/5/4 222/5/4 230/5/4
f 223/1/4 225/1/4 231/1/4
f 225/2/4 226/2/4 232/2/4
f 231/1/4 225/1/4 232/1/4
f 226/1/4 224/1/4 233/1/4
f 232/2/4 226/2/4 233/2/4
f 233/1/4 224/1/4 234/1/4
f 230/5/4 231/5/4 235/5/4
f 235/5/4 231/5/4 236/5/4
f 237/5/4 238/5/4 239/5/4
f 239/5/4 238/5/4 240/5/4
f 244/4/5 242/4/5 241/4/5
f 245/4/5 242/4/5 244/4/5
f 247/4/5 244/4/5 243/4/5
f 248/1/5 245/1/5 244/1/5
f 248/4/5 244/4/5 247/4/5
f 249/4/5 246/4/5 245/4/5
f 249/1/5 245/1/5 248/1/5
f 250/4/5 246/4/5 249/4/5
f 251/4/5 249/4/5 248/4/5
f 252/4/5 249/4/5 251/4/5
f 256/5/5 254/5/5 253/5/5
f 257/5/5 254/5/5 256/5/5
f 259/5/5 256/5/5 255/5/5
f 260/5/5 256/5/5 259/5/5
f 261/5/5 258/5/5 257/5/5
f 262/5/5 258/5/5 261/5/5
f 263/5/5 261/5/5 260/5/5
f 264/5/5 261/5/5 263/5/5
f 268/5/5 266/5/5 265/5/5
f 269/5/5 266/5/5 268/5/5
f 272/5/5 268/5/5 267/5/5
f 273/5/5 268/5/5 272/5/5
f 274/5/5 270/5/5 269/5/5
f 275/5/5 270/5/5 274/5/5
f 277/5/5 272/5/5 271/5/5
f 278/5/5 272/5/5 277/5/5
f 281/5/5 276/5/5 275/5/5
f 282/5/5 276/5/5 281/5/5
f 283/5/5 279/5/5 278/5/5
f 284/5/5 279/5/5 283/5/5
f 285/5/5 281/5/5 280/5/5
f 286/5/5 281/5/5 285/5/5
f 287/5/5 285/5/5 284/5/5
f 288/5/5 285/5/5 287/5/5
f 289/4/6 290/4/6 292/4/6
f 292/4/6 290/4/6 293/4/6
f 291/4/6 292/4/6 295/4/6
f 295/4/6 292/4/6 296/4/6
f 293/4/6 294/4/6 297/4/6
f 297/4/6 294/4/6 298/4/6
f 296/4/6 297/4/6 299/4/6
f 299/4/6 297/4/6 300/4/6
f 301/5/6 302/5/6 304/5/6
f 304/5/6 302/5/6 305/5/6
f 303/5/6 304/5/6 308/5/6
f 308/5/6 304/5/6 309/5/6
f 305/5/6 306/5/6 310/5/6
f 310/5/6 306/5/6 311/5/6
f 307/5/6 308/5/6 313/5/6
f 313/5/6 308/5/6 314/5/6
f 311/5/6 312/5/6 317/5/6
f 317/5/6 312/5/6 318/5/6
f 314/5/6 315/5/6 319/5/6
f 319/5/6 315/5/6 320/5/6
f 316/5/6 317/5/6 321/5/6
f 321/5/6 317/5/6 322/5/6
f 320/5/6 321/5/6 323/5/6
f 323/5/6 321/5/6 324/5/6
f 325/1/6 326/1/6 328/1/6
f 328/1/6 326/1/6 329/1/6
f 327/1/6 328/1/6 331/1/6
f 327/1/6 331/1/6 332/1/6
f 332/1/6 331/1/6 333/1/6
f 329/1/6 330/1/6 335/1/6
f 335/1/6 330/1/6 336/1/6
f 333/1/6 334/1/6 337/1/6
f 334/1/6 335/1/6 337/1/6
f 337/1/6 335/1/6 338/1/6
f 339/1/6 340/1/6 341/1/6
f 341/1/6 340/1/6 342/1/6
f 341/2/6 342/2/6 343/2/6
f 342/1/6 340/1/6 344/1/6
f 343/2/6 342/2/6 344/2/6
f 344/1/6 340/1/6 345/1/6
