# MagicaVoxel @ Ephtracy

# group
o 

# material
mtllib gameUpdate1-1.mtl
usemtl palette

# normals
vn -1 0 0
vn 1 0 0
vn 0 0 1
vn 0 0 -1
vn 0 -1 0
vn 0 1 0

# texcoords
vt 0.279297 0.5
vt 0.310547 0.5

# verts
v -0.6 0 0.6
v -0.6 0 0.4
v -0.6 0 -0.5
v -0.6 0 -0.7
v -0.6 1 0.4
v -0.6 1 -0.5
v -0.6 1.2 0.4
v -0.6 1.2 -0.5
v -0.6 1.6 0.4
v -0.6 1.6 -0.5
v -0.6 2.1 0.1
v -0.6 2.1 -0.2
v -0.6 2.2 0.2
v -0.6 2.2 0.1
v -0.6 2.2 -0.2
v -0.6 2.2 -0.3
v -0.6 2.7 0.2
v -0.6 2.7 0.1
v -0.6 2.7 -0.2
v -0.6 2.7 -0.3
v -0.6 2.8 0.1
v -0.6 2.8 -0.2
v -0.6 2.8 -0.3
v -0.6 3 0.6
v -0.6 3 0.5
v -0.6 3 -0.6
v -0.6 3 -0.7
v -0.6 3.1 0.5
v -0.6 3.1 -0.6
v -0.5 2.7 -0.2
v -0.5 2.7 -0.3
v -0.5 2.8 -0.2
v -0.5 2.8 -0.3
v 0.5 0 0.6
v 0.5 0 0.4
v 0.5 0 -0.5
v 0.5 0 -0.7
v 0.5 1 0.6
v 0.5 1 0.4
v 0.5 1 -0.5
v 0.5 1 -0.7
v -0.4 0 0.6
v -0.4 0 0.4
v -0.4 0 -0.5
v -0.4 0 -0.7
v -0.4 1 0.6
v -0.4 1 0.4
v -0.4 1 -0.5
v -0.4 1 -0.7
v -0.4 1.2 0.6
v -0.4 1.2 0.4
v -0.4 1.2 -0.5
v -0.4 1.2 -0.7
v -0.4 1.6 0.4
v -0.4 1.6 -0.5
v -0.4 2.1 0.1
v -0.4 2.1 -0.2
v -0.4 2.2 0.2
v -0.4 2.2 0.1
v -0.4 2.2 -0.2
v -0.4 2.2 -0.3
v -0.4 2.7 0.2
v -0.4 2.7 0.1
v -0.4 2.7 -0.2
v -0.4 2.7 -0.3
v -0.4 2.8 0.1
v -0.4 2.8 -0.2
v -0.4 3 0.6
v -0.4 3 0.5
v -0.4 3 -0.6
v -0.4 3 -0.7
v -0.4 3.1 0.5
v -0.4 3.1 -0.6
v 0.7 0 0.6
v 0.7 0 0.4
v 0.7 0 -0.5
v 0.7 0 -0.7
v 0.7 1 0.4
v 0.7 1 -0.5
v 0.7 1.2 0.6
v 0.7 1.2 -0.7
v -0.6 0 0.6
v -0.6 3 0.6
v -0.4 0 0.6
v -0.4 1 0.6
v -0.4 1.2 0.6
v -0.4 3 0.6
v 0.5 0 0.6
v 0.5 1 0.6
v 0.7 0 0.6
v 0.7 1.2 0.6
v -0.6 3 0.5
v -0.6 3.1 0.5
v -0.4 3 0.5
v -0.4 3.1 0.5
v -0.6 2.7 -0.3
v -0.6 2.8 -0.3
v -0.5 2.7 -0.3
v -0.5 2.8 -0.3
v -0.6 0 -0.5
v -0.6 1 -0.5
v -0.6 1.2 -0.5
v -0.6 1.6 -0.5
v -0.4 0 -0.5
v -0.4 1 -0.5
v -0.4 1.2 -0.5
v -0.4 1.6 -0.5
v 0.5 0 -0.5
v 0.5 1 -0.5
v 0.7 0 -0.5
v 0.7 1 -0.5
v -0.6 0 0.4
v -0.6 1 0.4
v -0.6 1.2 0.4
v -0.6 1.6 0.4
v -0.4 0 0.4
v -0.4 1 0.4
v -0.4 1.2 0.4
v -0.4 1.6 0.4
v 0.5 0 0.4
v 0.5 1 0.4
v 0.7 0 0.4
v 0.7 1 0.4
v -0.6 2.7 -0.2
v -0.6 2.8 -0.2
v -0.5 2.7 -0.2
v -0.5 2.8 -0.2
v -0.6 3 -0.6
v -0.6 3.1 -0.6
v -0.4 3 -0.6
v -0.4 3.1 -0.6
v -0.6 0 -0.7
v -0.6 3 -0.7
v -0.4 0 -0.7
v -0.4 1 -0.7
v -0.4 1.2 -0.7
v -0.4 3 -0.7
v 0.5 0 -0.7
v 0.5 1 -0.7
v 0.7 0 -0.7
v 0.7 1.2 -0.7
v -0.6 0 0.6
v -0.4 0 0.6
v 0.5 0 0.6
v 0.7 0 0.6
v -0.6 0 0.4
v -0.4 0 0.4
v 0.5 0 0.4
v 0.7 0 0.4
v -0.6 0 -0.5
v -0.4 0 -0.5
v 0.5 0 -0.5
v 0.7 0 -0.5
v -0.6 0 -0.7
v -0.4 0 -0.7
v 0.5 0 -0.7
v 0.7 0 -0.7
v -0.4 1 0.6
v 0.5 1 0.6
v -0.6 1 0.4
v -0.4 1 0.4
v 0.5 1 0.4
v 0.7 1 0.4
v -0.6 1 -0.5
v -0.4 1 -0.5
v 0.5 1 -0.5
v 0.7 1 -0.5
v -0.4 1 -0.7
v 0.5 1 -0.7
v -0.6 1.6 0.4
v -0.4 1.6 0.4
v -0.6 1.6 -0.5
v -0.4 1.6 -0.5
v -0.6 2.8 -0.2
v -0.5 2.8 -0.2
v -0.6 2.8 -0.3
v -0.5 2.8 -0.3
v -0.4 1.2 0.6
v 0.7 1.2 0.6
v -0.6 1.2 0.4
v -0.4 1.2 0.4
v -0.6 1.2 -0.5
v -0.4 1.2 -0.5
v -0.4 1.2 -0.7
v 0.7 1.2 -0.7
v -0.6 2.7 -0.2
v -0.5 2.7 -0.2
v -0.6 2.7 -0.3
v -0.5 2.7 -0.3
v -0.6 3 0.6
v -0.4 3 0.6
v -0.6 3 0.5
v -0.4 3 0.5
v -0.6 3 -0.6
v -0.4 3 -0.6
v -0.6 3 -0.7
v -0.4 3 -0.7
v -0.6 3.1 0.5
v -0.4 3.1 0.5
v -0.6 3.1 -0.6
v -0.4 3.1 -0.6

# faces
f 5/2/1 2/2/1 1/2/1
f 6/2/1 4/2/1 3/2/1
f 7/2/1 5/2/1 1/2/1
f 7/2/1 6/2/1 5/2/1
f 8/2/1 4/2/1 6/2/1
f 8/2/1 6/2/1 7/2/1
f 9/2/1 7/2/1 1/2/1
f 10/2/1 4/2/1 8/2/1
f 11/2/1 10/2/1 9/2/1
f 12/2/1 10/2/1 11/2/1
f 13/2/1 11/2/1 9/2/1
f 14/1/1 12/1/1 11/1/1
f 14/2/1 11/2/1 13/2/1
f 15/2/1 10/2/1 12/2/1
f 15/1/1 12/1/1 14/1/1
f 16/2/1 10/2/1 15/2/1
f 17/1/1 14/1/1 13/1/1
f 17/2/1 13/2/1 9/2/1
f 18/2/1 15/2/1 14/2/1
f 18/1/1 14/1/1 17/1/1
f 19/1/1 16/1/1 15/1/1
f 19/2/1 15/2/1 18/2/1
f 20/2/1 10/2/1 16/2/1
f 20/1/1 16/1/1 19/1/1
f 21/1/1 19/1/1 18/1/1
f 21/2/1 18/2/1 17/2/1
f 22/1/1 19/1/1 21/1/1
f 23/2/1 10/2/1 20/2/1
f 24/2/1 9/2/1 1/2/1
f 24/2/1 23/2/1 22/2/1
f 24/2/1 22/2/1 21/2/1
f 24/2/1 17/2/1 9/2/1
f 24/2/1 21/2/1 17/2/1
f 25/2/1 23/2/1 24/2/1
f 26/2/1 10/2/1 23/2/1
f 26/2/1 23/2/1 25/2/1
f 26/2/1 4/2/1 10/2/1
f 27/2/1 4/2/1 26/2/1
f 28/2/1 26/2/1 25/2/1
f 29/2/1 26/2/1 28/2/1
f 32/2/1 31/2/1 30/2/1
f 33/2/1 31/2/1 32/2/1
f 38/2/1 35/2/1 34/2/1
f 39/2/1 35/2/1 38/2/1
f 40/2/1 37/2/1 36/2/1
f 41/2/1 37/2/1 40/2/1
f 42/2/2 43/2/2 46/2/2
f 46/2/2 43/2/2 47/2/2
f 44/2/2 45/2/2 48/2/2
f 48/2/2 45/2/2 49/2/2
f 50/2/2 51/2/2 54/2/2
f 52/2/2 53/2/2 55/2/2
f 54/2/2 55/2/2 56/2/2
f 56/2/2 55/2/2 57/2/2
f 54/2/2 56/2/2 58/2/2
f 56/1/2 57/1/2 59/1/2
f 58/2/2 56/2/2 59/2/2
f 57/2/2 55/2/2 60/2/2
f 59/1/2 57/1/2 60/1/2
f 60/2/2 55/2/2 61/2/2
f 58/1/2 59/1/2 62/1/2
f 54/2/2 58/2/2 62/2/2
f 59/2/2 60/2/2 63/2/2
f 62/1/2 59/1/2 63/1/2
f 60/1/2 61/1/2 64/1/2
f 63/2/2 60/2/2 64/2/2
f 61/2/2 55/2/2 65/2/2
f 64/1/2 61/1/2 65/1/2
f 63/1/2 64/1/2 66/1/2
f 62/2/2 63/2/2 66/2/2
f 64/2/2 65/2/2 67/2/2
f 66/1/2 64/1/2 67/1/2
f 50/2/2 54/2/2 68/2/2
f 62/2/2 66/2/2 68/2/2
f 66/2/2 67/2/2 68/2/2
f 54/2/2 62/2/2 68/2/2
f 68/2/2 67/2/2 69/2/2
f 67/2/2 65/2/2 70/2/2
f 69/2/2 67/2/2 70/2/2
f 55/2/2 53/2/2 70/2/2
f 65/2/2 55/2/2 70/2/2
f 70/2/2 53/2/2 71/2/2
f 69/2/2 70/2/2 72/2/2
f 72/2/2 70/2/2 73/2/2
f 74/2/2 75/2/2 78/2/2
f 76/2/2 77/2/2 79/2/2
f 74/2/2 78/2/2 80/2/2
f 78/2/2 79/2/2 80/2/2
f 79/2/2 77/2/2 81/2/2
f 80/2/2 79/2/2 81/2/2
f 84/2/3 83/2/3 82/2/3
f 85/2/3 83/2/3 84/2/3
f 86/2/3 83/2/3 85/2/3
f 87/2/3 83/2/3 86/2/3
f 89/2/3 86/2/3 85/2/3
f 90/2/3 89/2/3 88/2/3
f 91/2/3 86/2/3 89/2/3
f 91/2/3 89/2/3 90/2/3
f 94/2/3 93/2/3 92/2/3
f 95/2/3 93/2/3 94/2/3
f 98/2/3 97/2/3 96/2/3
f 99/2/3 97/2/3 98/2/3
f 104/2/3 101/2/3 100/2/3
f 105/2/3 101/2/3 104/2/3
f 106/2/3 103/2/3 102/2/3
f 107/2/3 103/2/3 106/2/3
f 110/2/3 109/2/3 108/2/3
f 111/2/3 109/2/3 110/2/3
f 112/2/4 113/2/4 116/2/4
f 116/2/4 113/2/4 117/2/4
f 114/2/4 115/2/4 118/2/4
f 118/2/4 115/2/4 119/2/4
f 120/2/4 121/2/4 122/2/4
f 122/2/4 121/2/4 123/2/4
f 124/1/4 125/1/4 126/1/4
f 126/1/4 125/1/4 127/1/4
f 128/2/4 129/2/4 130/2/4
f 130/2/4 129/2/4 131/2/4
f 132/2/4 133/2/4 134/2/4
f 134/2/4 133/2/4 135/2/4
f 135/2/4 133/2/4 136/2/4
f 136/2/4 133/2/4 137/2/4
f 135/2/4 136/2/4 139/2/4
f 138/2/4 139/2/4 140/2/4
f 139/2/4 136/2/4 141/2/4
f 140/2/4 139/2/4 141/2/4
f 146/2/5 143/2/5 142/2/5
f 147/2/5 143/2/5 146/2/5
f 148/2/5 145/2/5 144/2/5
f 149/2/5 145/2/5 148/2/5
f 154/2/5 151/2/5 150/2/5
f 155/2/5 151/2/5 154/2/5
f 156/2/5 153/2/5 152/2/5
f 157/2/5 153/2/5 156/2/5
f 161/2/5 159/2/5 158/2/5
f 162/2/5 159/2/5 161/2/5
f 164/2/5 161/2/5 160/2/5
f 164/2/5 163/2/5 162/2/5
f 164/2/5 162/2/5 161/2/5
f 165/2/5 163/2/5 164/2/5
f 166/2/5 163/2/5 165/2/5
f 167/2/5 163/2/5 166/2/5
f 168/2/5 166/2/5 165/2/5
f 169/2/5 166/2/5 168/2/5
f 172/2/5 171/2/5 170/2/5
f 173/2/5 171/2/5 172/2/5
f 176/2/5 175/2/5 174/2/5
f 177/2/5 175/2/5 176/2/5
f 178/2/6 179/2/6 181/2/6
f 180/2/6 181/2/6 182/2/6
f 181/2/6 179/2/6 183/2/6
f 182/2/6 181/2/6 183/2/6
f 183/2/6 179/2/6 184/2/6
f 184/2/6 179/2/6 185/2/6
f 186/1/6 187/1/6 188/1/6
f 188/1/6 187/1/6 189/1/6
f 190/2/6 191/2/6 192/2/6
f 192/2/6 191/2/6 193/2/6
f 194/2/6 195/2/6 196/2/6
f 196/2/6 195/2/6 197/2/6
f 198/2/6 199/2/6 200/2/6
f 200/2/6 199/2/6 201/2/6
