# MagicaVoxel @ Ephtracy

# group
o 

# material
mtllib game-10.mtl
usemtl palette

# normals
vn 0 1 0
vn 0 -1 0
vn 0 0 1
vn 0 0 -1
vn -1 0 0
vn 1 0 0

# texcoords
vt 0.146484 0.5
vt 0.279297 0.5
vt 0.919922 0.5
vt 0.935547 0.5
vt 0.966797 0.5
vt 0.974609 0.5
vt 0.986328 0.5

# verts
v -1.5 3.2 0.1
v -1.5 3.2 -0.1
v -1.3 3.2 0.1
v -1.3 3.2 -0.1
v -0.6 3.2 0.1
v -0.6 3.2 -0.1
v -0.4 3.2 0.1
v -0.4 3.2 -0.1
v -1.5 3.1 0.2
v -1.5 3.1 0.1
v -1.5 3.1 -0.1
v -1.5 3.1 -0.2
v -1.3 3.1 0.2
v -1.3 3.1 0.1
v -1.3 3.1 -0.1
v -1.3 3.1 -0.2
v -0.6 3.1 0.3
v -0.6 3.1 0.1
v -0.6 3.1 -0.1
v -0.6 3.1 -0.3
v -0.5 3.1 0.5
v -0.5 3.1 0.3
v -0.5 3.1 -0.3
v -0.5 3.1 -0.5
v -0.4 3.1 0.4
v -0.4 3.1 0.2
v -0.4 3.1 0.1
v -0.4 3.1 -0.1
v -0.4 3.1 -0.2
v -0.4 3.1 -0.4
v -0.3 3.1 0.5
v -0.3 3.1 0.4
v -0.3 3.1 -0.4
v -0.3 3.1 -0.5
v 1.5 3.1 0.2
v 1.5 3.1 0.1
v 1.5 3.1 -0.1
v 1.5 3.1 -0.2
v 1.6 3.1 0.1
v 1.6 3.1 -0.1
v -1.5 2.9 0.2
v -1.5 2.9 0.1
v -1.5 2.9 -0.1
v -1.5 2.9 -0.2
v -1.3 2.9 0.2
v -1.3 2.9 0.1
v -1.3 2.9 -0.1
v -1.3 2.9 -0.2
v -0.6 2.9 0.3
v -0.6 2.9 0.1
v -0.6 2.9 -0.1
v -0.6 2.9 -0.3
v -0.5 2.9 0.5
v -0.5 2.9 0.3
v -0.5 2.9 -0.3
v -0.5 2.9 -0.5
v -0.4 2.9 0.4
v -0.4 2.9 0.2
v -0.4 2.9 0.1
v -0.4 2.9 -0.1
v -0.4 2.9 -0.2
v -0.4 2.9 -0.4
v -0.3 2.9 0.5
v -0.3 2.9 0.4
v -0.3 2.9 0.2
v -0.3 2.9 0.1
v -0.3 2.9 -0.4
v -0.3 2.9 -0.5
v 0.3 2.9 0.2
v 0.3 2.9 0.1
v 1.5 2.9 0.2
v 1.5 2.9 0.1
v 1.5 2.9 -0.1
v 1.5 2.9 -0.2
v 1.6 2.9 0.1
v 1.6 2.9 -0.1
v -1.5 2.8 0.1
v -1.5 2.8 -0.1
v -1.3 2.8 0.1
v -1.3 2.8 -0.1
v -0.6 2.8 0.1
v -0.6 2.8 -0.1
v -0.4 2.8 0.1
v -0.4 2.8 -0.1
v -0.5 3.1 0.5
v -0.3 3.1 0.5
v -0.5 2.9 0.5
v -0.3 2.9 0.5
v -0.6 3.1 0.3
v -0.5 3.1 0.3
v -0.6 2.9 0.3
v -0.5 2.9 0.3
v -1.5 3.1 0.2
v -1.3 3.1 0.2
v -0.4 3.1 0.2
v 1.5 3.1 0.2
v -0.3 3 0.2
v 0.3 3 0.2
v -1.5 2.9 0.2
v -1.3 2.9 0.2
v -0.4 2.9 0.2
v -0.3 2.9 0.2
v 0.3 2.9 0.2
v 1.5 2.9 0.2
v -1.5 3.2 0.1
v -1.3 3.2 0.1
v -0.6 3.2 0.1
v -0.4 3.2 0.1
v -1.5 3.1 0.1
v -1.3 3.1 0.1
v -0.6 3.1 0.1
v -0.4 3.1 0.1
v 1.5 3.1 0.1
v 1.6 3.1 0.1
v -1.5 2.9 0.1
v -1.3 2.9 0.1
v -0.6 2.9 0.1
v -0.4 2.9 0.1
v 1.5 2.9 0.1
v 1.6 2.9 0.1
v -1.5 2.8 0.1
v -1.3 2.8 0.1
v -0.6 2.8 0.1
v -0.4 2.8 0.1
v -0.4 3.1 -0.4
v -0.3 3.1 -0.4
v -0.4 2.9 -0.4
v -0.3 2.9 -0.4
v -0.4 3.1 0.4
v -0.3 3.1 0.4
v -0.4 2.9 0.4
v -0.3 2.9 0.4
v -1.5 3.2 -0.1
v -1.3 3.2 -0.1
v -0.6 3.2 -0.1
v -0.4 3.2 -0.1
v -1.5 3.1 -0.1
v -1.3 3.1 -0.1
v -0.6 3.1 -0.1
v -0.4 3.1 -0.1
v 1.5 3.1 -0.1
v 1.6 3.1 -0.1
v -1.5 2.9 -0.1
v -1.3 2.9 -0.1
v -0.6 2.9 -0.1
v -0.4 2.9 -0.1
v 1.5 2.9 -0.1
v 1.6 2.9 -0.1
v -1.5 2.8 -0.1
v -1.3 2.8 -0.1
v -0.6 2.8 -0.1
v -0.4 2.8 -0.1
v -1.5 3.1 -0.2
v -1.3 3.1 -0.2
v -0.4 3.1 -0.2
v 1.5 3.1 -0.2
v -1.5 2.9 -0.2
v -1.3 2.9 -0.2
v -0.4 2.9 -0.2
v 1.5 2.9 -0.2
v -0.6 3.1 -0.3
v -0.5 3.1 -0.3
v -0.6 2.9 -0.3
v -0.5 2.9 -0.3
v -0.5 3.1 -0.5
v -0.3 3.1 -0.5
v -0.5 2.9 -0.5
v -0.3 2.9 -0.5
v -1.5 3.1 0.2
v -1.5 2.9 0.2
v -1.5 3.2 0.1
v -1.5 3.1 0.1
v -1.5 2.9 0.1
v -1.5 2.8 0.1
v -1.5 3.2 -0.1
v -1.5 3.1 -0.1
v -1.5 2.9 -0.1
v -1.5 2.8 -0.1
v -1.5 3.1 -0.2
v -1.5 2.9 -0.2
v -0.6 3.1 0.3
v -0.6 2.9 0.3
v -0.6 3.2 0.1
v -0.6 3.1 0.1
v -0.6 2.9 0.1
v -0.6 2.8 0.1
v -0.6 3.2 -0.1
v -0.6 3.1 -0.1
v -0.6 2.9 -0.1
v -0.6 2.8 -0.1
v -0.6 3.1 -0.3
v -0.6 2.9 -0.3
v -0.5 3.1 0.5
v -0.5 2.9 0.5
v -0.5 3.1 0.3
v -0.5 2.9 0.3
v -0.5 3.1 -0.3
v -0.5 2.9 -0.3
v -0.5 3.1 -0.5
v -0.5 2.9 -0.5
v -1.3 3.1 0.2
v -1.3 2.9 0.2
v -1.3 3.2 0.1
v -1.3 3.1 0.1
v -1.3 2.9 0.1
v -1.3 2.8 0.1
v -1.3 3.2 -0.1
v -1.3 3.1 -0.1
v -1.3 2.9 -0.1
v -1.3 2.8 -0.1
v -1.3 3.1 -0.2
v -1.3 2.9 -0.2
v -0.4 3.1 0.4
v -0.4 2.9 0.4
v -0.4 3.1 0.2
v -0.4 2.9 0.2
v -0.4 3.2 0.1
v -0.4 3.1 0.1
v -0.4 2.9 0.1
v -0.4 2.8 0.1
v -0.4 3.2 -0.1
v -0.4 3.1 -0.1
v -0.4 2.9 -0.1
v -0.4 2.8 -0.1
v -0.4 3.1 -0.2
v -0.4 2.9 -0.2
v -0.4 3.1 -0.4
v -0.4 2.9 -0.4
v -0.3 3.1 0.5
v -0.3 2.9 0.5
v -0.3 3.1 0.4
v -0.3 2.9 0.4
v -0.3 3.1 -0.4
v -0.3 2.9 -0.4
v -0.3 3.1 -0.5
v -0.3 2.9 -0.5
v 1.5 3.1 0.2
v 1.5 2.9 0.2
v 1.5 3.1 0.1
v 1.5 2.9 0.1
v 1.5 3.1 -0.1
v 1.5 2.9 -0.1
v 1.5 3.1 -0.2
v 1.5 2.9 -0.2
v 1.6 3.1 0.1
v 1.6 2.9 0.1
v 1.6 3.1 -0.1
v 1.6 2.9 -0.1

# faces
f 3/4/1 2/4/1 1/4/1
f 4/4/1 2/4/1 3/4/1
f 7/1/1 6/1/1 5/1/1
f 8/1/1 6/1/1 7/1/1
f 13/4/1 10/4/1 9/4/1
f 14/4/1 10/4/1 13/4/1
f 15/4/1 12/4/1 11/4/1
f 16/4/1 12/4/1 15/4/1
f 18/2/1 15/2/1 14/2/1
f 19/2/1 15/2/1 18/2/1
f 22/4/1 18/4/1 17/4/1
f 23/4/1 20/4/1 19/4/1
f 25/4/1 22/4/1 21/4/1
f 26/4/1 18/4/1 22/4/1
f 26/4/1 22/4/1 25/4/1
f 27/4/1 18/4/1 26/4/1
f 28/4/1 24/4/1 23/4/1
f 28/4/1 23/4/1 19/4/1
f 29/4/1 24/4/1 28/4/1
f 30/4/1 24/4/1 29/4/1
f 31/4/1 25/4/1 21/4/1
f 32/4/1 25/4/1 31/4/1
f 33/4/1 24/4/1 30/4/1
f 34/4/1 24/4/1 33/4/1
f 35/5/1 27/5/1 26/5/1
f 36/6/1 28/6/1 27/6/1
f 36/5/1 27/5/1 35/5/1
f 37/5/1 29/5/1 28/5/1
f 37/6/1 28/6/1 36/6/1
f 38/5/1 29/5/1 37/5/1
f 39/5/1 37/5/1 36/5/1
f 40/5/1 37/5/1 39/5/1
f 41/4/2 42/4/2 45/4/2
f 45/4/2 42/4/2 46/4/2
f 43/4/2 44/4/2 47/4/2
f 47/4/2 44/4/2 48/4/2
f 46/2/2 47/2/2 50/2/2
f 50/2/2 47/2/2 51/2/2
f 49/4/2 50/4/2 54/4/2
f 51/4/2 52/4/2 55/4/2
f 53/4/2 54/4/2 57/4/2
f 54/4/2 50/4/2 58/4/2
f 57/4/2 54/4/2 58/4/2
f 58/4/2 50/4/2 59/4/2
f 55/4/2 56/4/2 60/4/2
f 51/4/2 55/4/2 60/4/2
f 60/4/2 56/4/2 61/4/2
f 61/4/2 56/4/2 62/4/2
f 53/4/2 57/4/2 63/4/2
f 63/4/2 57/4/2 64/4/2
f 58/5/2 59/5/2 65/5/2
f 59/6/2 60/6/2 66/6/2
f 65/5/2 59/5/2 66/5/2
f 62/4/2 56/4/2 67/4/2
f 67/4/2 56/4/2 68/4/2
f 65/3/2 66/3/2 69/3/2
f 66/6/2 60/6/2 70/6/2
f 69/3/2 66/3/2 70/3/2
f 69/5/2 70/5/2 71/5/2
f 70/6/2 60/6/2 72/6/2
f 71/5/2 70/5/2 72/5/2
f 60/5/2 61/5/2 73/5/2
f 72/6/2 60/6/2 73/6/2
f 73/5/2 61/5/2 74/5/2
f 72/5/2 73/5/2 75/5/2
f 75/5/2 73/5/2 76/5/2
f 77/4/2 78/4/2 79/4/2
f 79/4/2 78/4/2 80/4/2
f 81/1/2 82/1/2 83/1/2
f 83/1/2 82/1/2 84/1/2
f 87/4/3 86/4/3 85/4/3
f 88/4/3 86/4/3 87/4/3
f 91/4/3 90/4/3 89/4/3
f 92/4/3 90/4/3 91/4/3
f 97/5/3 96/5/3 95/5/3
f 98/5/3 96/5/3 97/5/3
f 99/4/3 94/4/3 93/4/3
f 100/4/3 94/4/3 99/4/3
f 101/5/3 97/5/3 95/5/3
f 102/3/3 98/3/3 97/3/3
f 102/5/3 97/5/3 101/5/3
f 103/5/3 96/5/3 98/5/3
f 103/3/3 98/3/3 102/3/3
f 104/5/3 96/5/3 103/5/3
f 109/4/3 106/4/3 105/4/3
f 110/4/3 106/4/3 109/4/3
f 111/1/3 108/1/3 107/1/3
f 112/1/3 108/1/3 111/1/3
f 116/2/3 111/2/3 110/2/3
f 117/2/3 111/2/3 116/2/3
f 119/5/3 114/5/3 113/5/3
f 120/5/3 114/5/3 119/5/3
f 121/4/3 116/4/3 115/4/3
f 122/4/3 116/4/3 121/4/3
f 123/1/3 118/1/3 117/1/3
f 124/1/3 118/1/3 123/1/3
f 127/4/3 126/4/3 125/4/3
f 128/4/3 126/4/3 127/4/3
f 129/4/4 130/4/4 131/4/4
f 131/4/4 130/4/4 132/4/4
f 133/4/4 134/4/4 137/4/4
f 137/4/4 134/4/4 138/4/4
f 135/1/4 136/1/4 139/1/4
f 139/1/4 136/1/4 140/1/4
f 138/2/4 139/2/4 144/2/4
f 144/2/4 139/2/4 145/2/4
f 141/5/4 142/5/4 147/5/4
f 147/5/4 142/5/4 148/5/4
f 143/4/4 144/4/4 149/4/4
f 149/4/4 144/4/4 150/4/4
f 145/1/4 146/1/4 151/1/4
f 151/1/4 146/1/4 152/1/4
f 153/4/4 154/4/4 157/4/4
f 157/4/4 154/4/4 158/4/4
f 155/5/4 156/5/4 159/5/4
f 159/5/4 156/5/4 160/5/4
f 161/4/4 162/4/4 163/4/4
f 163/4/4 162/4/4 164/4/4
f 165/4/4 166/4/4 167/4/4
f 167/4/4 166/4/4 168/4/4
f 172/4/5 170/4/5 169/4/5
f 173/4/5 170/4/5 172/4/5
f 175/4/5 172/4/5 171/4/5
f 175/4/5 174/4/5 173/4/5
f 175/4/5 173/4/5 172/4/5
f 176/4/5 174/4/5 175/4/5
f 177/4/5 174/4/5 176/4/5
f 178/4/5 174/4/5 177/4/5
f 179/4/5 177/4/5 176/4/5
f 180/4/5 177/4/5 179/4/5
f 184/4/5 182/4/5 181/4/5
f 185/4/5 182/4/5 184/4/5
f 187/1/5 184/1/5 183/1/5
f 188/1/5 184/1/5 187/1/5
f 189/1/5 186/1/5 185/1/5
f 190/1/5 186/1/5 189/1/5
f 191/4/5 189/4/5 188/4/5
f 192/4/5 189/4/5 191/4/5
f 195/4/5 194/4/5 193/4/5
f 196/4/5 194/4/5 195/4/5
f 199/4/5 198/4/5 197/4/5
f 200/4/5 198/4/5 199/4/5
f 201/4/6 202/4/6 204/4/6
f 204/4/6 202/4/6 205/4/6
f 203/4/6 204/4/6 207/4/6
f 207/4/6 204/4/6 208/4/6
f 205/4/6 206/4/6 209/4/6
f 209/4/6 206/4/6 210/4/6
f 208/4/6 209/4/6 211/4/6
f 211/4/6 209/4/6 212/4/6
f 213/4/6 214/4/6 215/4/6
f 215/4/6 214/4/6 216/4/6
f 217/1/6 218/1/6 221/1/6
f 221/1/6 218/1/6 222/1/6
f 219/1/6 220/1/6 223/1/6
f 223/1/6 220/1/6 224/1/6
f 225/4/6 226/4/6 227/4/6
f 227/4/6 226/4/6 228/4/6
f 229/4/6 230/4/6 231/4/6
f 231/4/6 230/4/6 232/4/6
f 233/4/6 234/4/6 235/4/6
f 235/4/6 234/4/6 236/4/6
f 237/5/6 238/5/6 239/5/6
f 239/5/6 238/5/6 240/5/6
f 241/5/6 242/5/6 243/5/6
f 243/5/6 242/5/6 244/5/6
f 245/5/6 246/5/6 247/5/6
f 247/5/6 246/5/6 248/5/6
